<svg width="42" height="42" viewBox="0 0 42 42" fill="none" xmlns="http://www.w3.org/2000/svg">
<g clip-path="url(#clip0)">
<path d="M20.9978 5.7254C18.8911 5.7254 17.1777 7.43875 17.1777 9.5455C17.1777 11.6522 18.8911 13.3655 20.9978 13.3655C23.1046 13.3655 24.8178 11.6521 24.8178 9.5455C24.8178 7.43884 23.1045 5.7254 20.9978 5.7254ZM20.9978 11.4564C19.9445 11.4564 19.0869 10.5989 19.0869 9.5455C19.0869 8.49212 19.9445 7.63455 20.9978 7.63455C22.0512 7.63455 22.9088 8.49212 22.9088 9.5455C22.9088 10.5989 22.0512 11.4564 20.9978 11.4564Z" fill="white"/>
<path d="M41.0455 17.182C41.5731 17.182 42.0001 16.7577 42.0001 16.2301V12.4124C42.0001 12.0759 41.823 11.7637 41.533 11.5921L22.8606 0.50321C22.8522 0.497572 22.8438 0.492919 22.8355 0.488265C21.6749 -0.15489 20.3661 -0.174398 19.1384 0.501331L0.467042 11.5921C0.177098 11.7636 0 12.0759 0 12.4124V16.2301C0 16.7577 0.426951 17.182 0.954576 17.182H3.81821V34.3647C1.71237 34.3647 0 36.0768 0 38.1824V41.0458C0 41.5733 0.426951 42.0003 0.954576 42.0003H41.0455C41.5731 42.0003 42.0001 41.5734 42.0001 41.0458V38.1824C42.0001 36.0768 40.2877 34.3647 38.1819 34.3647V17.182H41.0455ZM40.0909 38.1821V40.0911H1.90906V38.1821C1.90906 37.1297 2.76574 36.273 3.81813 36.273H4.7727H37.2273H38.1819C39.2343 36.2729 40.0909 37.1296 40.0909 38.1821ZM5.72728 34.3638V17.182H9.54549V34.3638H5.72728ZM11.4546 34.3638V17.182H17.1818V34.3638H11.4546ZM19.0909 34.3638V17.182H22.9091V34.3638H19.0909ZM24.8182 34.3638V17.182H30.5454V34.3638H24.8182ZM32.4546 34.3638V17.182H36.2728V34.3638H32.4546ZM1.90906 15.273V12.9528L20.0856 2.15446C20.6803 1.82728 21.3123 1.82818 21.8996 2.14792L40.0909 12.9528V15.273H1.90906Z" fill="white"/>
</g>
<defs>
<clipPath id="clip0">
<rect width="42" height="42" fill="white"/>
</clipPath>
</defs>
</svg>
