<svg width="42" height="42" viewBox="0 0 42 42" fill="none" xmlns="http://www.w3.org/2000/svg">
<g clip-path="url(#clip0)">
<path d="M34.7481 8.81058C31.7384 5.80085 27.9154 3.90043 23.775 3.31235L24.9867 2.1005C25.4673 1.61996 25.4673 0.840912 24.9867 0.360373C24.5063 -0.120084 23.7271 -0.120084 23.2466 0.360373L20.1305 3.47649C19.6499 3.95695 19.6499 4.73608 20.1305 5.21662L23.2465 8.33266C23.4868 8.57293 23.8017 8.69311 24.1165 8.69311C24.4314 8.69311 24.7464 8.57293 24.9865 8.33266C25.4671 7.85221 25.4671 7.07307 24.9865 6.59253L24.2924 5.89839C32.0855 7.43565 37.9814 14.3208 37.9814 22.558C37.9816 31.9214 30.3639 39.5391 21.0006 39.5391C11.6373 39.5391 4.01953 31.9214 4.01953 22.5581C4.01953 18.9852 5.11604 15.5675 7.19061 12.6744C9.22212 9.8413 12.0227 7.72727 15.2897 6.56095C15.9297 6.33241 16.2633 5.62842 16.0348 4.98833C15.8064 4.34832 15.1022 4.01478 14.4622 4.24324C10.7213 5.57879 7.51529 7.99838 5.19061 11.2403C2.81449 14.5541 1.55859 18.4677 1.55859 22.5582C1.55859 27.7513 3.58091 32.6336 7.25304 36.3057C10.9252 39.9776 15.8074 42 21.0006 42C26.1937 42 31.076 39.9777 34.7481 36.3056C38.4202 32.6335 40.4425 27.7513 40.4425 22.5581C40.4425 17.365 38.4201 12.4826 34.7481 8.81058Z" fill="white"/>
<path d="M8.35742 22.5581C8.35742 29.529 14.0287 35.2003 20.9997 35.2003C27.9707 35.2003 33.642 29.529 33.642 22.5581C33.642 15.5872 27.9707 9.91568 20.9997 9.91568C14.0287 9.91568 8.35742 15.5871 8.35742 22.5581ZM20.9997 12.3766C26.6138 12.3766 31.1811 16.944 31.1811 22.558C31.1811 28.172 26.6137 32.7394 20.9997 32.7394C15.3858 32.7394 10.8184 28.1721 10.8184 22.5581C10.8184 16.9441 15.3857 12.3766 20.9997 12.3766Z" fill="white"/>
<path d="M22.5019 21.3372C21.5285 20.9931 20.4533 20.5785 19.8593 20.1125C19.7105 19.9959 19.6471 19.7005 19.7049 19.3939C19.7351 19.2331 19.876 18.696 20.4171 18.5331C21.3692 18.2462 22.0179 18.6235 22.2527 18.7988C22.7972 19.2058 23.5681 19.0944 23.9749 18.5501C24.3819 18.0057 24.2705 17.2347 23.7262 16.8278C23.5006 16.6592 22.9505 16.2985 22.1632 16.1027V15.7725C22.1632 15.0929 21.6123 14.542 20.9327 14.542C20.2532 14.542 19.7022 15.0929 19.7022 15.7725V16.1785C18.462 16.5542 17.5365 17.611 17.2865 18.9382C17.0553 20.1656 17.4591 21.3575 18.3406 22.0489C19.2124 22.7326 20.4615 23.226 21.6817 23.6573C22.6441 23.9975 22.6725 24.7346 22.6038 25.1436C22.489 25.8263 21.9145 26.5643 20.9245 26.5708C19.8907 26.5776 19.5967 26.531 18.8164 26.0206C18.2476 25.6484 17.4851 25.8079 17.113 26.3767C16.741 26.9454 16.9004 27.7079 17.4691 28.08C18.3178 28.6352 18.9538 28.8774 19.7022 28.9743V29.3435C19.7022 30.023 20.2532 30.574 20.9327 30.574C21.6123 30.574 22.1632 30.023 22.1632 29.3435V28.8485C22.743 28.6721 23.2728 28.3708 23.7295 27.9513C24.4142 27.3222 24.8762 26.4699 25.0307 25.5514C25.3458 23.6769 24.3296 21.9832 22.5019 21.3372Z" fill="white"/>
</g>
<defs>
<clipPath id="clip0">
<rect width="42" height="42" fill="white"/>
</clipPath>
</defs>
</svg>
