<svg width="42" height="42" viewBox="0 0 42 42" fill="none" xmlns="http://www.w3.org/2000/svg">
<path d="M41.1797 40.3594H40.8516V16.5703C40.8516 16.1173 40.4842 15.75 40.0312 15.75H33.4688C33.0158 15.75 32.6484 16.1173 32.6484 16.5703V40.3594H30.3516V21C30.3516 20.5469 29.9842 20.1797 29.5312 20.1797H22.9688C22.5158 20.1797 22.1484 20.5469 22.1484 21V40.3594H19.8516V25.749C19.8516 25.2959 19.4842 24.9286 19.0312 24.9286H12.4688C12.0158 24.9286 11.6484 25.2959 11.6484 25.749V40.3594H9.35156V31.9922C9.35156 31.5391 8.98423 31.1719 8.53125 31.1719H1.96875C1.51577 31.1719 1.14844 31.5391 1.14844 31.9922V40.3594H0.820312C0.367336 40.3594 0 40.7266 0 41.1797C0 41.6327 0.367336 42 0.820312 42H41.1797C41.6327 42 42 41.6327 42 41.1797C42 40.7266 41.6327 40.3594 41.1797 40.3594ZM2.78906 40.3594V32.8125H7.71094V40.3594H2.78906ZM13.2891 40.3594V26.5693H18.2109V40.3594H13.2891ZM23.7891 40.3594V21.8203H28.7109V40.3594H23.7891ZM34.2891 40.3594V17.3906H39.2109V40.3594H34.2891Z" fill="white"/>
<path d="M33.676 11.8687C34.5562 12.4445 35.1635 12.6255 35.9295 12.6756V13.2891C35.9295 13.7421 36.2969 14.1094 36.7498 14.1094C37.2028 14.1094 37.5701 13.7421 37.5701 13.2891V12.5806C39.0159 12.2098 39.9425 10.9732 40.1475 9.75376C40.4154 8.16047 39.5829 6.77554 38.0267 6.22543C37.8764 6.17228 37.7234 6.11715 37.5702 6.06039V3.12506C37.9375 3.25607 38.1758 3.42522 38.1885 3.43432C38.5494 3.70396 39.0607 3.63218 39.3332 3.27247C39.6068 2.91137 39.5359 2.39687 39.1748 2.1233C39.1337 2.09221 38.5037 1.62463 37.5701 1.42259V0.820312C37.5701 0.367254 37.2028 0 36.7498 0C36.2969 0 35.9295 0.367254 35.9295 0.820312V1.41775C35.838 1.43776 35.7458 1.46048 35.6525 1.48854C34.6221 1.79813 33.8523 2.67791 33.6433 3.78451C33.4519 4.79875 33.7793 5.77902 34.4982 6.34282C34.8631 6.62903 35.3145 6.89054 35.9295 7.16543V11.0299C35.4445 10.9837 35.1162 10.8502 34.5742 10.4957C34.195 10.2476 33.6865 10.354 33.4386 10.7331C33.1906 11.1122 33.2969 11.6206 33.676 11.8687ZM38.5296 9.48175C38.4428 9.99756 38.1177 10.5418 37.5701 10.8347V7.80667C38.6467 8.23905 38.5782 9.19324 38.5296 9.48175ZM35.5108 5.05189C35.2795 4.87052 35.1793 4.49252 35.2556 4.08893C35.32 3.74727 35.5304 3.34294 35.9296 3.13852V5.33006C35.7743 5.24007 35.6326 5.14746 35.5108 5.05189Z" fill="white"/>
<path d="M5.35962 24.8526C5.51351 25.0064 5.72211 25.0929 5.93966 25.0929C6.15721 25.0929 6.36581 25.0064 6.5197 24.8526L15.9858 15.3865L18.7025 18.1033C18.8564 18.2571 19.065 18.3436 19.2825 18.3436C19.5001 18.3436 19.7087 18.2571 19.8626 18.1033L28.8544 9.11137L29.5238 9.78075C29.7584 10.0153 30.1112 10.0856 30.4178 9.95851C30.7243 9.83153 30.9242 9.53244 30.9242 9.20063V4.10156C30.9242 3.6485 30.5568 3.28125 30.1038 3.28125H25.0047C24.6729 3.28125 24.3738 3.48116 24.2468 3.78763C24.1199 4.09418 24.1901 4.447 24.4247 4.68161L25.1023 5.35918L19.2825 11.1791L16.5658 8.46234C16.2454 8.14201 15.7262 8.14201 15.4057 8.46234L2.76759 21.1005C2.44726 21.4208 2.44726 21.9402 2.76759 22.2606L5.35962 24.8526ZM15.9858 10.2026L18.7025 12.9194C18.8564 13.0732 19.065 13.1597 19.2825 13.1597C19.5001 13.1597 19.7087 13.0732 19.8626 12.9194L26.8425 5.93939C26.9963 5.78558 27.0828 5.57689 27.0828 5.35935C27.0828 5.20332 27.0383 5.05189 26.9565 4.92196H29.2836V7.25205C28.9675 7.05772 28.5483 7.09751 28.2744 7.37133L19.2826 16.3632L16.5659 13.6464C16.2455 13.3261 15.7262 13.3261 15.4057 13.6464L5.93966 23.1125L4.5078 21.6805L15.9858 10.2026Z" fill="white"/>
</svg>
