<svg width="41" height="41" viewBox="0 0 41 41" fill="none" xmlns="http://www.w3.org/2000/svg">
<path d="M37.1562 15.375C37.1562 15.2051 37.0888 15.0422 36.9686 14.922C36.8485 14.8019 36.6855 14.7344 36.5156 14.7344H25.625V4.48441C25.625 4.3145 25.5575 4.15156 25.4374 4.03141C25.3172 3.91127 25.1543 3.84378 24.9844 3.84378C24.3403 3.84724 23.6976 3.90294 23.0625 4.01034V1.92191C23.0625 1.752 22.995 1.58906 22.8749 1.46892C22.7547 1.34877 22.5918 1.28128 22.4219 1.28128H7.04688C6.87704 1.28255 6.71419 1.34906 6.59203 1.46706L1.46703 6.59206C1.34903 6.71422 1.28251 6.87707 1.28125 7.04691V39.0782C1.28125 39.2481 1.34874 39.411 1.46888 39.5311C1.58903 39.6513 1.75197 39.7188 1.92188 39.7188H22.4219C22.5918 39.7188 22.7547 39.6513 22.8749 39.5311C22.995 39.411 23.0625 39.2481 23.0625 39.0782V28.021C23.6976 28.1284 24.3403 28.1841 24.9844 28.1875C28.2117 28.1846 31.306 26.9013 33.588 24.6193C35.87 22.3372 37.1534 19.243 37.1562 16.0157C37.1562 15.8427 37.1498 15.6697 37.1434 15.4967C37.1512 15.4566 37.1555 15.4159 37.1562 15.375ZM24.3438 5.14425V15.1124L16.5538 22.9024C15.2834 21.3494 14.467 19.4754 14.1947 17.4876C13.9225 15.4997 14.2049 13.4753 15.0109 11.6379C15.817 9.8005 17.1152 8.22163 18.7621 7.07569C20.4091 5.92975 22.3408 5.26133 24.3438 5.14425ZM6.40625 3.46581V6.40628H3.46578L6.40625 3.46581ZM21.7812 38.4375H2.5625V7.68753H7.04688C7.21678 7.68753 7.37972 7.62004 7.49987 7.4999C7.62001 7.37975 7.6875 7.21681 7.6875 7.04691V2.56253H21.7812V4.28581C19.2058 4.98513 16.9321 6.51262 15.3111 8.63254C13.69 10.7525 12.8117 13.347 12.8117 16.0157C12.8117 18.6843 13.69 21.2789 15.3111 23.3988C16.9321 25.5187 19.2058 27.0462 21.7812 27.7455V38.4375ZM24.9844 26.9063C22.1612 26.9064 19.4493 25.8055 17.425 23.8377L25.247 16.0157H35.875C35.8709 18.9028 34.7222 21.6705 32.6807 23.712C30.6392 25.7535 27.8715 26.9022 24.9844 26.9063Z" fill="white"/>
<path d="M27.5469 13.4531H39.0781V13.4493C39.1634 13.4474 39.2474 13.4283 39.3252 13.3932C39.403 13.3582 39.4729 13.3078 39.5308 13.2452C39.5887 13.1825 39.6335 13.1089 39.6623 13.0286C39.6912 12.9483 39.7036 12.8631 39.6989 12.7779C39.5289 9.67068 38.1742 6.74684 35.9137 4.60821C33.6531 2.46958 30.6588 1.2789 27.5469 1.28125C27.377 1.28125 27.214 1.34875 27.0939 1.46889C26.9737 1.58903 26.9062 1.75197 26.9062 1.92188V12.8125C26.9062 12.9824 26.9737 13.1454 27.0939 13.2655C27.214 13.3856 27.377 13.4531 27.5469 13.4531ZM38.3619 12.1719H28.1875V2.58108C30.74 2.72947 33.1587 3.77202 35.0192 5.52581C36.8797 7.2796 38.0632 9.63258 38.3619 12.1719Z" fill="white"/>
<path d="M12.1719 25.625C11.0315 25.625 9.91682 25.9631 8.96867 26.5967C8.02052 27.2302 7.28152 28.1307 6.84513 29.1842C6.40875 30.2377 6.29457 31.397 6.51704 32.5154C6.73951 33.6339 7.28863 34.6612 8.09496 35.4675C8.9013 36.2739 9.92864 36.823 11.0471 37.0455C12.1655 37.2679 13.3248 37.1538 14.3783 36.7174C15.4318 36.281 16.3323 35.542 16.9658 34.5938C17.5994 33.6457 17.9375 32.531 17.9375 31.3906C17.9351 29.8622 17.3269 28.3971 16.2462 27.3163C15.1654 26.2356 13.7003 25.6274 12.1719 25.625ZM12.1719 35.875C11.285 35.875 10.4179 35.612 9.68049 35.1192C8.94304 34.6265 8.36827 33.9261 8.02886 33.1067C7.68944 32.2873 7.60064 31.3857 7.77367 30.5158C7.9467 29.6459 8.37379 28.8468 9.00095 28.2197C9.6281 27.5925 10.4271 27.1654 11.297 26.9924C12.1669 26.8194 13.0686 26.9082 13.888 27.2476C14.7074 27.587 15.4078 28.1618 15.9005 28.8992C16.3932 29.6367 16.6563 30.5037 16.6563 31.3906C16.6549 32.5795 16.182 33.7194 15.3413 34.5601C14.5006 35.4008 13.3608 35.8736 12.1719 35.875Z" fill="white"/>
<path d="M14.0938 32.6719C14.0917 33.0682 13.9676 33.4542 13.7384 33.7775C13.5091 34.1007 13.1858 34.3455 12.8125 34.4784V35.2344H11.5312V34.4784C11.1579 34.3455 10.8346 34.1007 10.6054 33.7775C10.3761 33.4542 10.252 33.0682 10.25 32.6719H11.5312C11.5312 32.7986 11.5688 32.9224 11.6392 33.0278C11.7096 33.1331 11.8097 33.2152 11.9267 33.2637C12.0438 33.3122 12.1726 33.3249 12.2969 33.3002C12.4211 33.2755 12.5353 33.2145 12.6249 33.1249C12.7145 33.0353 12.7755 32.9211 12.8002 32.7969C12.8249 32.6726 12.8122 32.5438 12.7637 32.4267C12.7152 32.3097 12.6331 32.2096 12.5278 32.1392C12.4224 32.0688 12.2986 32.0312 12.1719 32.0312C11.7212 32.0278 11.286 31.866 10.9425 31.5742C10.599 31.2823 10.369 30.8791 10.2927 30.4349C10.2163 29.9907 10.2986 29.5338 10.525 29.144C10.7514 28.7543 11.1076 28.4565 11.5312 28.3028V27.5469H12.8125V28.3028C13.1858 28.4358 13.5091 28.6805 13.7384 29.0038C13.9676 29.327 14.0917 29.7131 14.0938 30.1094H12.8125C12.8125 29.9827 12.7749 29.8588 12.7045 29.7535C12.6341 29.6481 12.5341 29.566 12.417 29.5175C12.3 29.469 12.1712 29.4563 12.0469 29.4811C11.9226 29.5058 11.8085 29.5668 11.7189 29.6564C11.6293 29.746 11.5683 29.8601 11.5436 29.9844C11.5188 30.1087 11.5315 30.2375 11.58 30.3545C11.6285 30.4716 11.7106 30.5716 11.816 30.642C11.9213 30.7124 12.0452 30.75 12.1719 30.75C12.6811 30.7515 13.1691 30.9545 13.5292 31.3146C13.8893 31.6747 14.0922 32.1626 14.0938 32.6719Z" fill="white"/>
<path d="M5.125 10.25H11.5312V11.5312H5.125V10.25Z" fill="white"/>
<path d="M5.125 14.0938H11.5312V15.375H5.125V14.0938Z" fill="white"/>
<path d="M5.125 17.9375H11.5312V19.2188H5.125V17.9375Z" fill="white"/>
<path d="M5.125 21.7812H11.5312V23.0625H5.125V21.7812Z" fill="white"/>
<path d="M25.625 30.75H28.1875V32.0312H25.625V30.75Z" fill="white"/>
<path d="M29.4688 30.75H39.7188V32.0312H29.4688V30.75Z" fill="white"/>
<path d="M25.625 34.5938H28.1875V35.875H25.625V34.5938Z" fill="white"/>
<path d="M29.4688 34.5938H39.7188V35.875H29.4688V34.5938Z" fill="white"/>
<path d="M25.625 38.4375H28.1875V39.7188H25.625V38.4375Z" fill="white"/>
<path d="M29.4688 38.4375H39.7188V39.7188H29.4688V38.4375Z" fill="white"/>
</svg>
