<svg width="42" height="42" viewBox="0 0 42 42" fill="none" xmlns="http://www.w3.org/2000/svg">
<g clip-path="url(#clip0)">
<path d="M38.9375 7.875H3.0625C1.37375 7.875 0 6.50125 0 4.8125V3.0625C0 1.37375 1.37375 0 3.0625 0H38.9375C40.6263 0 42 1.37375 42 3.0625V4.8125C42 6.50125 40.6263 7.875 38.9375 7.875ZM3.0625 2.625C2.821 2.625 2.625 2.821 2.625 3.0625V4.8125C2.625 5.054 2.821 5.25 3.0625 5.25H38.9375C39.179 5.25 39.375 5.054 39.375 4.8125V3.0625C39.375 2.821 39.179 2.625 38.9375 2.625H3.0625Z" fill="white"/>
<path d="M38.9375 31.5H3.0625C2.338 31.5 1.75 30.912 1.75 30.1875C1.75 29.463 2.338 28.875 3.0625 28.875H38.9375C39.662 28.875 40.25 29.463 40.25 30.1875C40.25 30.912 39.662 31.5 38.9375 31.5Z" fill="white"/>
<path d="M21 42C20.2755 42 19.6875 41.412 19.6875 40.6875V30.625C19.6875 29.9005 20.2755 29.3125 21 29.3125C21.7245 29.3125 22.3125 29.9005 22.3125 30.625V40.6875C22.3125 41.412 21.7245 42 21 42Z" fill="white"/>
<path d="M28.4374 42C28.0366 42 27.6376 41.8162 27.3804 41.468L20.9999 32.8335L14.6176 41.468C14.1871 42.0525 13.3664 42.1732 12.7819 41.7427C12.1991 41.3122 12.0766 40.4897 12.5071 39.907L19.9446 29.8445C20.4381 29.1742 21.5616 29.1742 22.0551 29.8445L29.4926 39.907C29.9231 40.4897 29.8006 41.3122 29.2179 41.7427C28.9834 41.916 28.7086 42 28.4374 42Z" fill="white"/>
<path d="M37.1875 31.5C36.463 31.5 35.875 30.912 35.875 30.1875V6.5625C35.875 5.838 36.463 5.25 37.1875 5.25C37.912 5.25 38.5 5.838 38.5 6.5625V30.1875C38.5 30.912 37.912 31.5 37.1875 31.5Z" fill="white"/>
<path d="M4.8125 31.5C4.088 31.5 3.5 30.912 3.5 30.1875V6.5625C3.5 5.838 4.088 5.25 4.8125 5.25C5.537 5.25 6.125 5.838 6.125 6.5625V30.1875C6.125 30.912 5.537 31.5 4.8125 31.5Z" fill="white"/>
</g>
<defs>
<clipPath id="clip0">
<rect width="42" height="42" fill="white"/>
</clipPath>
</defs>
</svg>
