<svg width="48" height="48" viewBox="0 0 48 48" fill="none" xmlns="http://www.w3.org/2000/svg">
<path d="M20.0104 3.20947C10.7355 3.20947 3.2168 10.7282 3.2168 20.0031C3.2168 29.278 10.7355 36.7967 20.0104 36.7967C29.2853 36.7967 36.8041 29.278 36.8041 20.0031C36.794 10.7324 29.2811 3.21957 20.0104 3.20947ZM20.0104 4.80887C24.9502 4.81276 29.5791 7.22025 32.4185 11.2624L30.4193 13.2617C29.9328 12.9673 29.3758 12.8097 28.8071 12.8058C27.0405 12.8058 25.6083 14.238 25.6083 16.0046C25.6111 16.5739 25.7677 17.1318 26.0617 17.6192L20.8253 22.8556C19.8338 22.2511 18.5877 22.2511 17.5961 22.8556L13.9591 19.2186C14.2531 18.7312 14.4098 18.1733 14.4126 17.604C14.4148 15.8409 12.9873 14.4098 11.2242 14.4076C9.76601 14.4058 8.492 15.3922 8.12853 16.8043H5.16166C6.67579 9.81227 12.8563 4.81936 20.0104 4.80887ZM30.4065 16.0046C30.4065 16.888 29.6905 17.604 28.8071 17.604C27.9237 17.604 27.2077 16.888 27.2077 16.0046C27.2077 15.1213 27.9237 14.4052 28.8071 14.4052C29.6905 14.4052 30.4065 15.1213 30.4065 16.0046ZM20.8101 25.601C20.8101 26.4843 20.0941 27.2004 19.2107 27.2004C18.3274 27.2004 17.6113 26.4843 17.6113 25.601C17.6113 24.7176 18.3274 24.0016 19.2107 24.0016C20.0941 24.0016 20.8101 24.7176 20.8101 25.601ZM12.8132 17.604C12.8132 18.4874 12.0971 19.2034 11.2138 19.2034C10.3304 19.2034 9.61437 18.4874 9.61437 17.604C9.61437 16.7206 10.3304 16.0046 11.2138 16.0046C12.0971 16.0046 12.8132 16.7206 12.8132 17.604ZM27.393 33.2887C25.1347 34.5426 22.5937 35.1995 20.0104 35.1972C11.6246 35.2029 4.82189 28.4096 4.81619 20.0238C4.81579 19.4826 4.84438 18.9417 4.90176 18.4036H8.12853C8.4921 19.8116 9.75962 20.7972 11.2138 20.8027C11.783 20.7999 12.3409 20.6433 12.8284 20.3493L16.4654 23.9863C16.1714 24.4737 16.0147 25.0316 16.0119 25.6009C16.0119 27.3675 17.4441 28.7997 19.2107 28.7997C20.9774 28.7997 22.4095 27.3675 22.4095 25.6009C22.4067 25.0316 22.2501 24.4737 21.9561 23.9863L27.1925 18.7499C27.6799 19.0439 28.2378 19.2005 28.8071 19.2033C30.5737 19.2033 32.0059 17.7712 32.0059 16.0045C32.0031 15.4352 31.8464 14.8773 31.5525 14.3899L33.2958 12.6474C37.3657 19.9774 34.723 29.2188 27.393 33.2887Z" fill="white"/>
<path d="M40.003 8.00735C41.4571 8.00185 42.7247 7.01632 43.0882 5.60826H48V4.00886H43.0882C42.7247 2.6008 41.4571 1.61527 40.003 1.60977C38.2364 1.60977 36.8042 3.04193 36.8042 4.80856C36.807 5.37785 36.9636 5.93573 37.2576 6.42315L35.8526 7.82822C29.1296 -0.930562 16.5792 -2.58094 7.8204 4.14201C-0.938375 10.865 -2.58875 23.4155 4.1342 32.1743C10.4802 40.4419 22.1129 42.4474 30.8609 36.782L33.2743 39.1955L34.4051 40.3263L40.8427 46.7639C42.48 48.4011 45.1344 48.4011 46.7716 46.7639C48.4089 45.1266 48.4089 42.4722 46.7716 40.8349L40.3341 34.3973L39.2033 33.2666L36.7898 30.8531C41.0741 24.254 41.0741 15.7517 36.7898 9.15251L38.3892 7.55312C38.8763 7.84721 39.434 8.00415 40.003 8.00735ZM40.003 3.20917C40.8864 3.20917 41.6024 3.9252 41.6024 4.80856C41.6024 5.69193 40.8864 6.40796 40.003 6.40796C39.1196 6.40796 38.4036 5.69193 38.4036 4.80856C38.4036 3.9252 39.1197 3.20917 40.003 3.20917ZM45.6409 41.9657C46.6651 42.9669 46.6838 44.6089 45.6825 45.6331C44.6813 46.6573 43.0393 46.676 42.0151 45.6748C42.001 45.6611 41.9872 45.6472 41.9735 45.6331L35.5359 39.1955L39.2033 35.5281L45.6409 41.9657ZM38.0725 34.3973L34.4051 38.0648L32.1916 35.8512C32.3043 35.7648 32.4099 35.6697 32.521 35.5809C32.6322 35.4921 32.7609 35.3858 32.8801 35.2858C33.0552 35.1387 33.228 34.9899 33.3975 34.8372C33.4847 34.7572 33.5678 34.6772 33.6534 34.5973C33.9813 34.2902 34.2988 33.9727 34.6058 33.6448C34.6858 33.5593 34.7658 33.4761 34.8458 33.3889C34.9985 33.2194 35.1472 33.0467 35.2944 32.8715C35.3946 32.7532 35.493 32.6335 35.5895 32.5125C35.6774 32.4021 35.7726 32.2965 35.859 32.1838L38.0725 34.3973ZM34.9713 30.6828C34.7194 31.0346 34.4595 31.3793 34.1852 31.7112C34.1052 31.8079 34.0197 31.9015 33.9373 31.9967C33.6926 32.2813 33.4399 32.5575 33.1792 32.8251C33.0656 32.9424 32.9502 33.0578 32.8329 33.1714C32.5663 33.4321 32.2902 33.6848 32.0044 33.9295C31.9093 34.0095 31.8157 34.0967 31.7189 34.1774C31.3871 34.4517 31.0424 34.7116 30.6905 34.9635C22.4121 40.8778 10.9065 38.9612 4.99228 30.6828C-0.921981 22.4043 0.994592 10.8988 9.27305 4.98449C17.5515 -0.929763 29.0571 0.986711 34.9713 9.26527C39.5477 15.671 39.5477 24.277 34.9713 30.6828Z" fill="white"/>
</svg>
