<svg width="48" height="48" viewBox="0 0 48 48" fill="none" xmlns="http://www.w3.org/2000/svg">
<path d="M27.2519 10.1646H13.4144C13.0258 10.1646 12.7109 10.4795 12.7109 10.868C12.7109 11.2565 13.0258 11.5715 13.4144 11.5715H27.2519C27.6404 11.5715 27.9553 11.2565 27.9553 10.868C27.9553 10.4795 27.6404 10.1646 27.2519 10.1646Z" fill="white"/>
<path d="M6.76172 14.255C6.76172 14.6435 7.07658 14.9584 7.46517 14.9584H18.0567C18.4453 14.9584 18.7602 14.6435 18.7602 14.255C18.7602 13.8665 18.4453 13.5515 18.0567 13.5515H7.46517C7.07658 13.5515 6.76172 13.8665 6.76172 14.255Z" fill="white"/>
<path d="M30.2898 13.5515H22.6136C22.225 13.5515 21.9102 13.8665 21.9102 14.255C21.9102 14.6435 22.225 14.9584 22.6136 14.9584H30.2898C30.6784 14.9584 30.9932 14.6435 30.9932 14.255C30.9932 13.8665 30.6783 13.5515 30.2898 13.5515Z" fill="white"/>
<path d="M7.46517 18.5387H18.0567C18.4453 18.5387 18.7602 18.2238 18.7602 17.8353C18.7602 17.4468 18.4453 17.1318 18.0567 17.1318H7.46517C7.07658 17.1318 6.76172 17.4468 6.76172 17.8353C6.76172 18.2238 7.07658 18.5387 7.46517 18.5387Z" fill="white"/>
<path d="M21.9102 17.8353C21.9102 18.2238 22.225 18.5387 22.6136 18.5387H33.2051C33.5936 18.5387 33.9085 18.2238 33.9085 17.8353C33.9085 17.4468 33.5936 17.1318 33.2051 17.1318H22.6136C22.225 17.1318 21.9102 17.4468 21.9102 17.8353Z" fill="white"/>
<path d="M7.46517 22.1191H18.0567C18.4453 22.1191 18.7602 21.8041 18.7602 21.4156C18.7602 21.0271 18.4453 20.7122 18.0567 20.7122H7.46517C7.07658 20.7122 6.76172 21.0271 6.76172 21.4156C6.76172 21.8041 7.07658 22.1191 7.46517 22.1191Z" fill="white"/>
<path d="M33.9085 21.4156C33.9085 21.0271 33.5936 20.7122 33.2051 20.7122H22.6136C22.225 20.7122 21.9102 21.0271 21.9102 21.4156C21.9102 21.8041 22.225 22.1191 22.6136 22.1191H33.2051C33.5936 22.1191 33.9085 21.8041 33.9085 21.4156Z" fill="white"/>
<path d="M38.4204 0C37.993 0 37.5737 0.0343285 37.1641 0.0988584C36.9522 0.0433326 10.5956 0.00797246 10.3122 0.0127559C9.70195 0.0229794 9.38577 0.493448 8.97064 0.885036C7.59956 2.17826 6.22849 3.47139 4.85732 4.76462C4.18838 5.39548 3.51954 6.02643 2.85061 6.65728C2.48669 7.00057 1.59246 7.61182 1.54988 8.13209C1.54922 8.13988 1.54903 8.14757 1.54866 8.15535C1.54809 8.16708 1.54688 8.17871 1.54688 8.19053V45.3772C1.54688 46.8234 2.72342 48 4.16963 48H29.4295C29.818 48 30.1329 47.685 30.1329 47.2965C30.1329 46.908 29.818 46.5931 29.4295 46.5931H4.16953C3.49919 46.5931 2.95369 46.0477 2.95369 45.3772V8.89398H8.25602C9.70195 8.89398 10.8783 7.71762 10.8783 6.2717V1.41975H33.867C31.7658 2.87055 30.3853 5.29418 30.3853 8.03511C30.3853 12.2284 33.6148 15.6798 37.717 16.0375V45.3772C37.717 46.0477 37.1716 46.5931 36.5011 46.5931H32.7185C32.3299 46.5931 32.0151 46.908 32.0151 47.2965C32.0151 47.685 32.3299 48 32.7185 48H36.5011C37.9473 48 39.1239 46.8234 39.1239 45.3772V16.0375C43.226 15.6798 46.4554 12.2284 46.4554 8.03511C46.4554 3.60449 42.851 0 38.4204 0V0ZM9.4715 6.2716C9.4715 6.94185 8.92627 7.48698 8.25612 7.48698H4.02134L9.4715 2.34672V6.2716ZM38.4204 14.6632C34.7656 14.6632 31.7922 11.6899 31.7922 8.03511C31.7922 4.38035 34.7656 1.4069 38.4204 1.4069C42.0752 1.4069 45.0485 4.38025 45.0485 8.03502C45.0485 11.6898 42.0752 14.6632 38.4204 14.6632Z" fill="white"/>
<path d="M42.9407 6.01031L39.8669 2.93725C39.0569 2.12744 37.7387 2.12725 36.9284 2.93735L33.9224 5.94334C33.1287 6.73702 33.0843 8.07001 33.8235 8.915C34.1945 9.33885 34.7033 9.58244 35.2563 9.60091C35.6703 9.61433 36.0679 9.50084 36.4088 9.27573V11.6634C36.4088 12.8093 37.341 13.7415 38.4868 13.7415C39.6327 13.7415 40.5648 12.8093 40.5648 11.6634V9.34983C41.3391 9.72435 42.2993 9.59079 42.9408 8.94924C43.3333 8.55671 43.5494 8.03484 43.5494 7.47977C43.5494 6.92461 43.3333 6.40274 42.9407 6.01031ZM41.946 7.95446C41.6845 8.21615 41.2586 8.21605 40.9973 7.95474L40.9158 7.87314C40.6202 7.5776 40.1798 7.49018 39.7936 7.65001C39.4075 7.81002 39.158 8.18341 39.158 8.60136V11.6635C39.158 12.0336 38.857 12.3347 38.4869 12.3347C38.1169 12.3347 37.8158 12.0336 37.8158 11.6635V8.42399C37.8158 8.00605 37.5664 7.63266 37.1803 7.47264C37.0521 7.41956 36.918 7.39376 36.7851 7.39376C36.5177 7.39376 36.2555 7.49844 36.058 7.69587L35.7367 8.01712C35.6169 8.13708 35.4624 8.20123 35.3032 8.19485C35.1436 8.18951 34.9941 8.11625 34.8824 7.9886C34.6256 7.69512 34.6416 7.21415 34.9173 6.9384L37.9232 3.9324C38.185 3.67072 38.6107 3.67072 38.8722 3.9324L41.946 7.00546C42.0729 7.13217 42.1427 7.30072 42.1427 7.47996C42.1427 7.6592 42.0728 7.82765 41.946 7.95446Z" fill="white"/>
<path d="M20.5589 24.5713C18.8793 24.5713 17.2423 25.1598 15.9496 26.2282C15.6502 26.4758 15.608 26.9192 15.8556 27.2186C16.1031 27.5181 16.5464 27.5601 16.846 27.3126C17.8871 26.452 19.2057 25.9781 20.5589 25.9781C23.7745 25.9781 26.3907 28.5943 26.3907 31.8099C26.3907 35.0255 23.7745 37.6417 20.5589 37.6417C17.3433 37.6417 14.7271 35.0255 14.7271 31.8099C14.7271 31.0684 14.8642 30.3463 15.1346 29.6636C15.2776 29.3024 15.1009 28.8937 14.7396 28.7505C14.3786 28.6075 13.9696 28.7843 13.8266 29.1455C13.4906 29.9938 13.3203 30.8902 13.3203 31.8099C13.3203 34.1093 14.3993 36.1601 16.0761 37.487V42.5503C16.0761 42.9622 16.2787 43.3475 16.6179 43.5811C16.9573 43.8147 17.3895 43.8663 17.7743 43.7192L20.5589 42.6544L23.3436 43.7192C23.4884 43.7745 23.6398 43.8017 23.7905 43.8017C24.0404 43.8017 24.2883 43.7267 24.4999 43.5811C24.8392 43.3475 25.0418 42.9622 25.0418 42.5503V37.487C26.7185 36.1601 27.7975 34.1093 27.7975 31.8099C27.7976 27.8185 24.5504 24.5713 20.5589 24.5713ZM23.635 42.3244L21.0059 41.3192C20.8618 41.264 20.7104 41.2364 20.5589 41.2364C20.4074 41.2364 20.2561 41.264 20.112 41.3191L17.4829 42.3244V38.3606C18.4171 38.8011 19.4595 39.0486 20.5589 39.0486C21.6584 39.0486 22.7008 38.8011 23.635 38.3606V42.3244Z" fill="white"/>
<path d="M24.8252 30.3797C24.6649 29.8864 24.2463 29.5335 23.7329 29.459L22.3785 29.2621L21.7728 28.0348C21.5433 27.5696 21.0784 27.2805 20.5595 27.2805C20.0406 27.2805 19.5758 27.5695 19.3462 28.0347L18.7405 29.262L17.3861 29.4589C16.8727 29.5334 16.4542 29.8863 16.2938 30.3796C16.1335 30.8731 16.2647 31.4045 16.6361 31.7666L17.6162 32.722L17.3849 34.0709C17.2971 34.5823 17.5033 35.0893 17.9231 35.3942C18.1602 35.5665 18.4376 35.6541 18.717 35.6541C18.9321 35.6541 19.1483 35.6023 19.348 35.4973L20.5594 34.8604L21.7709 35.4973C22.23 35.7387 22.776 35.6992 23.1957 35.3943C23.6155 35.0894 23.8216 34.5823 23.7339 34.071L23.5026 32.722L24.4826 31.7667C24.8542 31.4046 24.9855 30.8732 24.8252 30.3797ZM22.3739 31.8577C22.1343 32.0914 22.0249 32.4278 22.0815 32.758L22.329 34.2013L21.0329 33.5198C20.8847 33.4419 20.7221 33.403 20.5596 33.403C20.3972 33.403 20.2344 33.442 20.0862 33.5199L18.7902 34.2013L19.0377 32.7583C19.0944 32.4283 18.9851 32.0917 18.7453 31.8576L17.6966 30.8356L19.1456 30.625C19.4769 30.5769 19.7634 30.3689 19.9116 30.0685L20.5596 28.7554L21.2076 30.0685C21.3558 30.3689 21.6423 30.5768 21.9735 30.6249L23.4226 30.8355L22.3739 31.8577Z" fill="white"/>
</svg>
