<svg width="48" height="48" viewBox="0 0 48 48" fill="none" xmlns="http://www.w3.org/2000/svg">
<path d="M16.101 15.2828L15.0142 17.1127L18.1373 20.2358L19.9672 19.149C20.3835 19.3612 20.8177 19.5405 21.2662 19.686L21.7927 21.75H26.208L26.7345 19.686C27.1838 19.5413 27.618 19.3612 28.0335 19.149L29.8635 20.2358L32.9865 17.1127L31.8997 15.2828C32.112 14.8665 32.2913 14.4323 32.4368 13.9838L34.5 13.4573V9.042L32.436 8.5155C32.2913 8.06625 32.1113 7.632 31.899 7.2165L32.9857 5.3865L29.8628 2.2635L28.0327 3.35025C27.6165 3.138 27.1823 2.95875 26.7338 2.81325L26.2073 0.75H21.792L21.2655 2.814C20.8162 2.95875 20.382 3.13875 19.9665 3.351L18.1365 2.26425L15.0135 5.38725L16.1002 7.21725C15.888 7.6335 15.7087 8.06775 15.5632 8.51625L13.5 9.04275V13.458L15.564 13.9845C15.7088 14.433 15.8888 14.8673 16.101 15.2828ZM15 10.2075L16.7723 9.756L16.8862 9.333C17.0535 8.712 17.298 8.121 17.613 7.575L17.832 7.19475L16.899 5.6235L18.3727 4.14975L19.944 5.08275L20.325 4.863C20.871 4.548 21.462 4.3035 22.083 4.13625L22.506 4.02225L22.9575 2.25H25.0417L25.4933 4.02225L25.9163 4.13625C26.5373 4.3035 27.1282 4.548 27.6742 4.863L28.0545 5.082L29.6257 4.149L31.0995 5.62275L30.1665 7.194L30.3855 7.57425C30.7005 8.12025 30.945 8.71125 31.1123 9.33225L31.2262 9.75525L33 10.2075V12.2917L31.2278 12.7432L31.1138 13.1663C30.9465 13.7873 30.702 14.3783 30.387 14.9242L30.168 15.3045L31.101 16.8757L29.6272 18.3495L28.056 17.4165L27.675 17.637C27.129 17.952 26.538 18.1965 25.917 18.3638L25.494 18.4777L25.0425 20.25H22.9575L22.506 18.4777L22.083 18.3638C21.462 18.1965 20.871 17.952 20.325 17.637L19.9448 17.418L18.3735 18.351L16.8998 16.8773L17.8328 15.306L17.613 14.925C17.298 14.379 17.0535 13.788 16.8862 13.167L16.7723 12.744L15 12.2925V10.2075Z" fill="white"/>
<path d="M0.75 45.75H2.25V47.25H0.75V45.75Z" fill="white"/>
<path d="M45.75 45.75H47.25V47.25H45.75V45.75Z" fill="white"/>
<path d="M24 15.75C26.4818 15.75 28.5 13.7318 28.5 11.25C28.5 8.76825 26.4818 6.75 24 6.75C21.5182 6.75 19.5 8.76825 19.5 11.25C19.5 13.7318 21.5182 15.75 24 15.75ZM24 8.25C25.6545 8.25 27 9.5955 27 11.25C27 12.9045 25.6545 14.25 24 14.25C22.3455 14.25 21 12.9045 21 11.25C21 9.5955 22.3455 8.25 24 8.25Z" fill="white"/>
<path d="M42.75 24.75H33.75V23.25H14.25V24.75H5.25V45.75H3.75V47.25H44.25V45.75H42.75V24.75ZM41.25 45.75H33.75V41.25H41.25V45.75ZM41.25 26.25V39.75H33.75V26.25H41.25ZM32.25 24.75V45.75H30V37.5C30 36.2595 28.9905 35.25 27.75 35.25H20.25C19.0095 35.25 18 36.2595 18 37.5V45.75H15.75V24.75H32.25ZM24.75 36.75H27.75C28.1632 36.75 28.5 37.086 28.5 37.5V45.75H24.75V36.75ZM23.25 45.75H19.5V37.5C19.5 37.086 19.8368 36.75 20.25 36.75H23.25V45.75ZM14.25 26.25V39.75H6.75V26.25H14.25ZM6.75 41.25H14.25V45.75H6.75V41.25Z" fill="white"/>
<path d="M17.25 26.25H18.75V27.75H17.25V26.25Z" fill="white"/>
<path d="M20.25 26.25H21.75V27.75H20.25V26.25Z" fill="white"/>
<path d="M23.25 26.25H24.75V27.75H23.25V26.25Z" fill="white"/>
<path d="M26.25 26.25H27.75V27.75H26.25V26.25Z" fill="white"/>
<path d="M29.25 26.25H30.75V27.75H29.25V26.25Z" fill="white"/>
<path d="M17.25 29.25H18.75V30.75H17.25V29.25Z" fill="white"/>
<path d="M20.25 29.25H21.75V30.75H20.25V29.25Z" fill="white"/>
<path d="M23.25 29.25H24.75V30.75H23.25V29.25Z" fill="white"/>
<path d="M26.25 29.25H27.75V30.75H26.25V29.25Z" fill="white"/>
<path d="M29.25 29.25H30.75V30.75H29.25V29.25Z" fill="white"/>
<path d="M17.25 32.25H18.75V33.75H17.25V32.25Z" fill="white"/>
<path d="M20.25 32.25H21.75V33.75H20.25V32.25Z" fill="white"/>
<path d="M23.25 32.25H24.75V33.75H23.25V32.25Z" fill="white"/>
<path d="M26.25 32.25H27.75V33.75H26.25V32.25Z" fill="white"/>
<path d="M29.25 32.25H30.75V33.75H29.25V32.25Z" fill="white"/>
<path d="M35.25 27.75H36.75V29.25H35.25V27.75Z" fill="white"/>
<path d="M38.25 27.75H39.75V29.25H38.25V27.75Z" fill="white"/>
<path d="M35.25 30.75H36.75V32.25H35.25V30.75Z" fill="white"/>
<path d="M38.25 30.75H39.75V32.25H38.25V30.75Z" fill="white"/>
<path d="M35.25 33.75H36.75V35.25H35.25V33.75Z" fill="white"/>
<path d="M38.25 33.75H39.75V35.25H38.25V33.75Z" fill="white"/>
<path d="M35.25 36.75H36.75V38.25H35.25V36.75Z" fill="white"/>
<path d="M38.25 36.75H39.75V38.25H38.25V36.75Z" fill="white"/>
<path d="M11.25 27.75H12.75V29.25H11.25V27.75Z" fill="white"/>
<path d="M8.25 27.75H9.75V29.25H8.25V27.75Z" fill="white"/>
<path d="M11.25 30.75H12.75V32.25H11.25V30.75Z" fill="white"/>
<path d="M8.25 30.75H9.75V32.25H8.25V30.75Z" fill="white"/>
<path d="M11.25 33.75H12.75V35.25H11.25V33.75Z" fill="white"/>
<path d="M8.25 33.75H9.75V35.25H8.25V33.75Z" fill="white"/>
<path d="M11.25 36.75H12.75V38.25H11.25V36.75Z" fill="white"/>
<path d="M8.25 36.75H9.75V38.25H8.25V36.75Z" fill="white"/>
<path d="M38.25 21.75H39.75V23.25H38.25V21.75Z" fill="white"/>
<path d="M41.2516 0.347168L35.1211 7.49992H38.2516V20.2499H39.7516V5.99992H38.3821L41.2516 2.65267L44.1211 5.99992H42.7516V23.2499H44.2516V7.49992H47.3821L41.2516 0.347168Z" fill="white"/>
<path d="M8.25 21.75H9.75V23.25H8.25V21.75Z" fill="white"/>
<path d="M3.75159 23.2499H5.25159V5.99992H3.88209L6.75159 2.65267L9.62109 5.99992H8.25159V20.2499H9.75159V7.49992H12.8821L6.75159 0.347168L0.621094 7.49992H3.75159V23.2499Z" fill="white"/>
</svg>
