<svg width="37" height="48" viewBox="0 0 37 48" fill="none" xmlns="http://www.w3.org/2000/svg">
<g clip-path="url(#clip0)">
<path d="M33.0548 0H18.4967C18.1057 0 17.7886 0.314719 17.7886 0.703125C17.7886 1.09153 18.1057 1.40625 18.4967 1.40625H26.2426V3.54375C26.2426 3.67866 26.1324 3.78844 25.997 3.78844H24.0901C23.699 3.78844 23.3821 4.10316 23.3821 4.49156V6.38531C23.3821 6.51975 23.2719 6.62906 23.1366 6.62906H13.5999C13.4645 6.62906 13.3545 6.51975 13.3545 6.38531V4.49156C13.3545 4.10316 13.0375 3.78844 12.6464 3.78844H10.7395C10.6041 3.78844 10.494 3.67866 10.494 3.54375V1.40625H15.1925C15.5835 1.40625 15.9006 1.09153 15.9006 0.703125C15.9006 0.314719 15.5835 0 15.1925 0H3.68177C1.7141 0 0.113281 1.58972 0.113281 3.54375V7.6725C0.113281 8.06091 0.430291 8.37562 0.821315 8.37562C1.21234 8.37562 1.52935 8.06091 1.52935 7.6725V3.54375C1.52935 2.36512 2.49492 1.40625 3.68177 1.40625H9.07794V3.54375C9.07794 3.62709 9.08624 3.70837 9.09823 3.78844H4.6362C4.24518 3.78844 3.92817 4.10316 3.92817 4.49156V43.5084C3.92817 43.8968 4.24518 44.2116 4.6362 44.2116H32.1004C32.4915 44.2116 32.8084 43.8968 32.8084 43.5084V29.7131C32.8084 29.3247 32.4915 29.01 32.1004 29.01C31.7093 29.01 31.3923 29.3247 31.3923 29.7131V42.8053H5.34424V5.19469H11.9384V6.38531C11.9384 7.29506 12.6838 8.03531 13.5999 8.03531H23.1367C24.0529 8.03531 24.7983 7.29506 24.7983 6.38531V5.19469H31.3924V26.4319C31.3924 26.8203 31.7094 27.135 32.1005 27.135C32.4916 27.135 32.8085 26.8203 32.8085 26.4319V4.49156C32.8085 4.10316 32.4916 3.78844 32.1005 3.78844H27.6384C27.6505 3.70837 27.6587 3.62709 27.6587 3.54375V1.40625H33.0549C34.2418 1.40625 35.2073 2.36512 35.2073 3.54375V44.4563C35.2073 45.6349 34.2418 46.5938 33.0549 46.5938H3.68177C2.49492 46.5938 1.52935 45.6349 1.52935 44.4563V10.9537C1.52935 10.5653 1.21234 10.2506 0.821315 10.2506C0.430291 10.2506 0.113281 10.5653 0.113281 10.9537V44.4563C0.113281 46.4103 1.7141 48 3.68177 48H33.0548C35.0225 48 36.6233 46.4103 36.6233 44.4563V3.54375C36.6233 1.58972 35.0225 0 33.0548 0V0Z" fill="white"/>
<path d="M9.59576 11.6484C8.15373 11.6484 6.98047 12.8136 6.98047 14.2456C6.98047 15.6776 8.15373 16.8428 9.59576 16.8428C11.0378 16.8428 12.211 15.6776 12.211 14.2456C12.211 12.8136 11.0378 11.6484 9.59576 11.6484ZM9.59576 15.4365C8.93455 15.4365 8.39654 14.9023 8.39654 14.2456C8.39654 13.5889 8.93455 13.0547 9.59576 13.0547C10.257 13.0547 10.795 13.5889 10.795 14.2456C10.795 14.9023 10.257 15.4365 9.59576 15.4365Z" fill="white"/>
<path d="M29.0504 11.6484H14.3643C13.9733 11.6484 13.6562 11.9632 13.6562 12.3516C13.6562 12.74 13.9733 13.0547 14.3643 13.0547H29.0503C29.4414 13.0547 29.7584 12.74 29.7584 12.3516C29.7584 11.9632 29.4414 11.6484 29.0504 11.6484Z" fill="white"/>
<path d="M14.3643 16.8428H25.2357C25.6268 16.8428 25.9438 16.5281 25.9438 16.1396C25.9438 15.7512 25.6268 15.4365 25.2357 15.4365H14.3643C13.9733 15.4365 13.6562 15.7512 13.6562 16.1396C13.6562 16.5281 13.9733 16.8428 14.3643 16.8428Z" fill="white"/>
<path d="M9.59576 18.5618C8.15373 18.5618 6.98047 19.7269 6.98047 21.1589C6.98047 22.591 8.15373 23.7561 9.59576 23.7561C11.0378 23.7561 12.211 22.591 12.211 21.1589C12.211 19.7269 11.0378 18.5618 9.59576 18.5618ZM9.59576 22.3498C8.93455 22.3498 8.39654 21.8156 8.39654 21.1589C8.39654 20.5022 8.93455 19.968 9.59576 19.968C10.257 19.968 10.795 20.5022 10.795 21.1589C10.795 21.8156 10.257 22.3498 9.59576 22.3498Z" fill="white"/>
<path d="M29.0504 18.5618H14.3643C13.9733 18.5618 13.6562 18.8765 13.6562 19.2649C13.6562 19.6533 13.9733 19.968 14.3643 19.968H29.0503C29.4414 19.968 29.7584 19.6533 29.7584 19.2649C29.7584 18.8765 29.4414 18.5618 29.0504 18.5618Z" fill="white"/>
<path d="M14.3643 23.7561H25.2357C25.6268 23.7561 25.9438 23.4414 25.9438 23.053C25.9438 22.6646 25.6268 22.3499 25.2357 22.3499H14.3643C13.9733 22.3499 13.6562 22.6646 13.6562 23.053C13.6562 23.4414 13.9733 23.7561 14.3643 23.7561Z" fill="white"/>
<path d="M9.59576 25.4751C8.15373 25.4751 6.98047 26.6402 6.98047 28.0723C6.98047 29.5044 8.15373 30.6695 9.59576 30.6695C11.0378 30.6695 12.211 29.5044 12.211 28.0723C12.211 26.6402 11.0378 25.4751 9.59576 25.4751ZM9.59576 29.2634C8.93455 29.2634 8.39654 28.7291 8.39654 28.0724C8.39654 27.4156 8.93455 26.8814 9.59576 26.8814C10.257 26.8814 10.795 27.4156 10.795 28.0724C10.795 28.7291 10.257 29.2634 9.59576 29.2634Z" fill="white"/>
<path d="M29.0504 25.4751H14.3643C13.9733 25.4751 13.6562 25.7898 13.6562 26.1782C13.6562 26.5666 13.9733 26.8813 14.3643 26.8813H29.0503C29.4414 26.8813 29.7584 26.5666 29.7584 26.1782C29.7584 25.7898 29.4414 25.4751 29.0504 25.4751Z" fill="white"/>
<path d="M14.3643 30.6694H25.2357C25.6268 30.6694 25.9438 30.3547 25.9438 29.9663C25.9438 29.5779 25.6268 29.2632 25.2357 29.2632H14.3643C13.9733 29.2632 13.6562 29.5779 13.6562 29.9663C13.6562 30.3547 13.9733 30.6694 14.3643 30.6694Z" fill="white"/>
<path d="M9.59576 32.3884C8.15373 32.3884 6.98047 33.5536 6.98047 34.9856C6.98047 36.4176 8.15373 37.5827 9.59576 37.5827C11.0378 37.5827 12.211 36.4176 12.211 34.9856C12.211 33.5536 11.0378 32.3884 9.59576 32.3884ZM9.59576 36.1765C8.93455 36.1765 8.39654 35.6423 8.39654 34.9856C8.39654 34.3289 8.93455 33.7947 9.59576 33.7947C10.257 33.7947 10.795 34.3289 10.795 34.9856C10.795 35.6423 10.257 36.1765 9.59576 36.1765Z" fill="white"/>
<path d="M29.7585 33.0916C29.7585 32.7031 29.4415 32.3884 29.0504 32.3884H14.3643C13.9733 32.3884 13.6562 32.7031 13.6562 33.0916C13.6562 33.48 13.9733 33.7947 14.3643 33.7947H29.0503C29.4414 33.7947 29.7585 33.4799 29.7585 33.0916Z" fill="white"/>
<path d="M14.3643 36.1765C13.9733 36.1765 13.6562 36.4912 13.6562 36.8796C13.6562 37.268 13.9733 37.5828 14.3643 37.5828H25.2357C25.6268 37.5828 25.9438 37.268 25.9438 36.8796C25.9438 36.4912 25.6268 36.1765 25.2357 36.1765H14.3643Z" fill="white"/>
</g>
<defs>
<clipPath id="clip0">
<rect width="36.7347" height="48" fill="white"/>
</clipPath>
</defs>
</svg>
