<svg width="48" height="48" viewBox="0 0 48 48" fill="none" xmlns="http://www.w3.org/2000/svg">
<path d="M15.9996 34.4H14.3996C13.9578 34.4 13.5996 34.7582 13.5996 35.2C13.5996 35.6418 13.9578 36 14.3996 36H15.9996C16.4414 36 16.7996 35.6418 16.7996 35.2C16.7996 34.7582 16.4414 34.4 15.9996 34.4Z" fill="white"/>
<path d="M38.4004 34.4H19.2004C18.7586 34.4 18.4004 34.7582 18.4004 35.2C18.4004 35.6418 18.7586 36 19.2004 36H38.4004C38.8422 36 39.2004 35.6418 39.2004 35.2C39.2004 34.7582 38.8422 34.4 38.4004 34.4Z" fill="white"/>
<path d="M15.9996 29.6001H14.3996C13.9578 29.6001 13.5996 29.9583 13.5996 30.4001C13.5996 30.8419 13.9578 31.2001 14.3996 31.2001H15.9996C16.4414 31.2001 16.7996 30.8419 16.7996 30.4001C16.7996 29.9583 16.4414 29.6001 15.9996 29.6001Z" fill="white"/>
<path d="M38.4004 29.6001H19.2004C18.7586 29.6001 18.4004 29.9583 18.4004 30.4001C18.4004 30.8419 18.7586 31.2001 19.2004 31.2001H38.4004C38.8422 31.2001 39.2004 30.8419 39.2004 30.4001C39.2004 29.9583 38.8422 29.6001 38.4004 29.6001Z" fill="white"/>
<path d="M15.9996 24.8002H14.3996C13.9578 24.8002 13.5996 25.1584 13.5996 25.6002C13.5996 26.042 13.9578 26.4002 14.3996 26.4002H15.9996C16.4414 26.4002 16.7996 26.042 16.7996 25.6002C16.7996 25.1584 16.4414 24.8002 15.9996 24.8002Z" fill="white"/>
<path d="M38.4004 24.8002H19.2004C18.7586 24.8002 18.4004 25.1584 18.4004 25.6002C18.4004 26.042 18.7586 26.4002 19.2004 26.4002H38.4004C38.8422 26.4002 39.2004 26.042 39.2004 25.6002C39.2004 25.1584 38.8422 24.8002 38.4004 24.8002Z" fill="white"/>
<path d="M15.9996 19.9999H14.3996C13.9578 19.9999 13.5996 20.3581 13.5996 20.7999C13.5996 21.2417 13.9578 21.5999 14.3996 21.5999H15.9996C16.4414 21.5999 16.7996 21.2417 16.7996 20.7999C16.7996 20.3581 16.4414 19.9999 15.9996 19.9999Z" fill="white"/>
<path d="M38.4004 19.9999H19.2004C18.7586 19.9999 18.4004 20.3581 18.4004 20.7999C18.4004 21.2417 18.7586 21.5999 19.2004 21.5999H38.4004C38.8422 21.5999 39.2004 21.2417 39.2004 20.7999C39.2004 20.3581 38.8422 19.9999 38.4004 19.9999Z" fill="white"/>
<path d="M15.9996 15.2H14.3996C13.9578 15.2 13.5996 15.5582 13.5996 16C13.5996 16.4418 13.9578 16.7999 14.3996 16.7999H15.9996C16.4414 16.7999 16.7996 16.4418 16.7996 16C16.7996 15.5582 16.4414 15.2 15.9996 15.2Z" fill="white"/>
<path d="M38.4004 15.2H19.2004C18.7586 15.2 18.4004 15.5582 18.4004 16C18.4004 16.4418 18.7586 16.7999 19.2004 16.7999H38.4004C38.8422 16.7999 39.2004 16.4418 39.2004 16C39.2004 15.5582 38.8422 15.2 38.4004 15.2Z" fill="white"/>
<path d="M43.9896 11.9496C43.9856 11.8795 43.9719 11.8103 43.9488 11.744C43.94 11.7184 43.9336 11.6936 43.9224 11.6688C43.8835 11.5818 43.8293 11.5024 43.7624 11.4344L32.5624 0.2344C32.4944 0.1675 32.415 0.1133 32.328 0.0744C32.3032 0.0632 32.2784 0.0568 32.2536 0.048C32.1867 0.025 32.117 0.011 32.0464 0.0064C32.0328 0.0088 32.0176 0 32 0H9.6C9.1582 0 8.8 0.3582 8.8 0.8V3.2H4.8C4.3582 3.2 4 3.5582 4 4V47.2C4 47.6418 4.3582 48 4.8 48H38.4C38.8418 48 39.2 47.6418 39.2 47.2V43.2H43.2C43.6418 43.2 44 42.8418 44 42.4V12C44 11.9824 43.9912 11.9672 43.9896 11.9496ZM32.8 2.7312L41.2688 11.2H32.8V2.7312ZM37.6 46.4H5.6V4.8H8.8V42.4C8.8 42.8418 9.1582 43.2 9.6 43.2H37.6V46.4ZM42.4 41.6H10.4V1.6H31.2V12C31.2 12.4418 31.5582 12.8 32 12.8H42.4V41.6Z" fill="white"/>
<path d="M19.1996 7.20007H14.3996C13.9578 7.20007 13.5996 7.55827 13.5996 8.00007V12.8001C13.5996 13.2419 13.9578 13.6001 14.3996 13.6001H19.1996C19.6414 13.6001 19.9996 13.2419 19.9996 12.8001V8.00007C19.9996 7.55827 19.6414 7.20007 19.1996 7.20007ZM18.3996 12.0001H15.1996V8.80007H18.3996V12.0001Z" fill="white"/>
</svg>
