<svg width="36" height="48" viewBox="0 0 36 48" fill="none" xmlns="http://www.w3.org/2000/svg">
<g clip-path="url(#clip0)">
<path d="M35.0462 0H0.953125C0.564719 0 0.25 0.314812 0.25 0.703125V34.1025C0.25 34.4908 0.564719 34.8056 0.953125 34.8056C1.34153 34.8056 1.65625 34.4908 1.65625 34.1025V1.40625H34.3431V5.82656C34.3431 6.21488 34.6578 6.52969 35.0462 6.52969C35.4347 6.52969 35.7494 6.21488 35.7494 5.82656V0.703125C35.7494 0.314812 35.4347 0 35.0462 0V0Z" fill="white"/>
<path d="M35.0462 8.40479C34.6578 8.40479 34.3431 8.7196 34.3431 9.10791V46.5938H1.65625V37.3838C1.65625 36.9955 1.34153 36.6807 0.953125 36.6807C0.564719 36.6807 0.25 36.9955 0.25 37.3838V47.297C0.25 47.6853 0.564719 48.0001 0.953125 48.0001H35.0462C35.4347 48.0001 35.7494 47.6853 35.7494 47.297V9.10791C35.7494 8.7196 35.4347 8.40479 35.0462 8.40479Z" fill="white"/>
<path d="M3.28125 14.6245C3.28125 17.6232 5.72081 20.0628 8.7195 20.0628C11.7182 20.0628 14.1577 17.6232 14.1577 14.6245C14.1577 11.6258 11.7182 9.18628 8.7195 9.18628C5.72081 9.18628 3.28125 11.6258 3.28125 14.6245ZM8.7195 18.6565C6.49622 18.6565 4.6875 16.8478 4.6875 14.6245C4.6875 12.6412 6.12731 10.9889 8.01637 10.6552V14.6245C8.01637 15.0128 8.33109 15.3277 8.7195 15.3277H12.6889C12.355 17.2167 10.7029 18.6565 8.7195 18.6565ZM12.6889 13.9214H9.42262V10.6552C11.0831 10.9486 12.3954 12.2609 12.6889 13.9214Z" fill="white"/>
<path d="M4.36328 40.5327C3.97488 40.5327 3.66016 40.8475 3.66016 41.2358V44.2663C3.66016 44.6546 3.97488 44.9694 4.36328 44.9694H8.90903C9.29744 44.9694 9.61216 44.6546 9.61216 44.2663V41.2358C9.61216 40.8475 9.29744 40.5327 8.90903 40.5327H4.36328ZM8.20591 43.5632H5.06641V41.939H8.20591V43.5632Z" fill="white"/>
<path d="M11.9375 44.9698H16.4832C16.8716 44.9698 17.1863 44.655 17.1863 44.2667V36.6904C17.1863 36.3021 16.8716 35.9873 16.4832 35.9873H11.9375C11.5491 35.9873 11.2344 36.3021 11.2344 36.6904V44.2667C11.2344 44.655 11.5491 44.9698 11.9375 44.9698ZM12.6406 37.3936H15.78V43.5635H12.6406V37.3936Z" fill="white"/>
<path d="M19.5156 30.3049C19.1272 30.3049 18.8125 30.6197 18.8125 31.0081V44.2665C18.8125 44.6548 19.1272 44.9696 19.5156 44.9696H24.0613C24.4497 44.9696 24.7644 44.6548 24.7644 44.2665V31.0081C24.7644 30.6197 24.4497 30.3049 24.0613 30.3049H19.5156ZM23.3582 43.5633H20.2188V31.7112H23.3582V43.5633Z" fill="white"/>
<path d="M31.6349 30.403C32.0233 30.403 32.338 30.0882 32.338 29.6999V27.2202C32.338 26.8319 32.0233 26.5171 31.6349 26.5171H27.0898C26.7014 26.5171 26.3867 26.8319 26.3867 27.2202V44.2658C26.3867 44.6541 26.7014 44.969 27.0898 44.969H31.6348C32.0232 44.969 32.3379 44.6541 32.3379 44.2658V32.9811C32.3379 32.5928 32.0232 32.278 31.6348 32.278C31.2464 32.278 30.9316 32.5928 30.9316 32.9811V43.5627H27.793V27.9233H30.9316V29.6999C30.9317 30.0882 31.2464 30.403 31.6349 30.403Z" fill="white"/>
<path d="M25.5743 3.03027H10.4219C10.0335 3.03027 9.71875 3.34509 9.71875 3.7334V6.76387C9.71875 7.15218 10.0335 7.467 10.4219 7.467H25.5744C25.9628 7.467 26.2775 7.15218 26.2775 6.76387V3.7334C26.2774 3.34509 25.9627 3.03027 25.5743 3.03027ZM24.8712 6.06074H11.125V4.43652H24.8713V6.06074H24.8712Z" fill="white"/>
<path d="M32.016 9.18628H18C17.6116 9.18628 17.2969 9.50109 17.2969 9.8894C17.2969 10.2777 17.6116 10.5925 18 10.5925H32.016C32.4044 10.5925 32.7191 10.2777 32.7191 9.8894C32.7191 9.50109 32.4043 9.18628 32.016 9.18628Z" fill="white"/>
<path d="M32.016 12.343H18C17.6116 12.343 17.2969 12.6578 17.2969 13.0461C17.2969 13.4345 17.6116 13.7493 18 13.7493H32.016C32.4044 13.7493 32.7191 13.4345 32.7191 13.0461C32.7191 12.6578 32.4043 12.343 32.016 12.343Z" fill="white"/>
<path d="M32.7191 16.2029C32.7191 15.8146 32.4044 15.4998 32.016 15.4998H18C17.6116 15.4998 17.2969 15.8146 17.2969 16.2029C17.2969 16.5912 17.6116 16.906 18 16.906H32.016C32.4043 16.906 32.7191 16.5912 32.7191 16.2029Z" fill="white"/>
<path d="M27.037 19.3596C27.037 18.9713 26.7223 18.6565 26.3339 18.6565H18C17.6116 18.6565 17.2969 18.9713 17.2969 19.3596C17.2969 19.7479 17.6116 20.0627 18 20.0627H26.3339C26.7222 20.0627 27.037 19.7479 27.037 19.3596Z" fill="white"/>
<path d="M17.9997 23.2969H5.21484C4.82644 23.2969 4.51172 23.6117 4.51172 24C4.51172 24.3883 4.82644 24.7031 5.21484 24.7031H17.9997C18.3881 24.7031 18.7028 24.3883 18.7028 24C18.7028 23.6117 18.3881 23.2969 17.9997 23.2969Z" fill="white"/>
<path d="M18.7028 27.1567C18.7028 26.7684 18.3881 26.4536 17.9997 26.4536H5.21484C4.82644 26.4536 4.51172 26.7684 4.51172 27.1567C4.51172 27.5451 4.82644 27.8599 5.21484 27.8599H17.9997C18.3881 27.8599 18.7028 27.5451 18.7028 27.1567Z" fill="white"/>
<path d="M13.0208 30.3137C13.0208 29.9254 12.706 29.6106 12.3176 29.6106H5.21484C4.82644 29.6106 4.51172 29.9254 4.51172 30.3137C4.51172 30.702 4.82644 31.0168 5.21484 31.0168H12.3176C12.7059 31.0168 13.0208 30.702 13.0208 30.3137Z" fill="white"/>
</g>
<defs>
<clipPath id="clip0">
<rect width="36" height="48" fill="white"/>
</clipPath>
</defs>
</svg>
