<svg width="45" height="48" viewBox="0 0 45 48" fill="none" xmlns="http://www.w3.org/2000/svg">
<path d="M0.846794 33.6541C0.665204 33.6541 0.491052 33.582 0.362649 33.4536C0.234246 33.3252 0.162109 33.151 0.162109 32.9694V30.4635C0.162109 30.2819 0.234246 30.1078 0.362649 29.9794C0.491052 29.8509 0.665204 29.7788 0.846794 29.7788C1.02838 29.7788 1.20254 29.8509 1.33094 29.9794C1.45934 30.1078 1.53148 30.2819 1.53148 30.4635V32.9694C1.53148 33.151 1.45934 33.3252 1.33094 33.4536C1.20254 33.582 1.02838 33.6541 0.846794 33.6541Z" fill="white"/>
<path d="M37.1351 47.9641H0.846794C0.665204 47.9641 0.491052 47.8919 0.362649 47.7635C0.234246 47.6351 0.162109 47.461 0.162109 47.2794V39.0015C0.162109 38.8199 0.234246 38.6458 0.362649 38.5174C0.491052 38.389 0.665204 38.3168 0.846794 38.3168C1.02838 38.3168 1.20254 38.389 1.33094 38.5174C1.45934 38.6458 1.53148 38.8199 1.53148 39.0015V46.5947H36.4504V10.9322L26.9237 1.4055H1.53148V15.8455C1.53148 16.0271 1.45934 16.2012 1.33094 16.3296C1.20254 16.458 1.02838 16.5302 0.846794 16.5302C0.665204 16.5302 0.491052 16.458 0.362649 16.3296C0.234246 16.2012 0.162109 16.0271 0.162109 15.8455V0.720817C0.162109 0.539228 0.234246 0.365075 0.362649 0.236672C0.491052 0.108269 0.665204 0.0361328 0.846794 0.0361328H27.2072C27.3887 0.0361716 27.5629 0.108333 27.6912 0.236745L37.6192 10.1647C37.7476 10.293 37.8197 10.4672 37.8198 10.6487V47.2794C37.8198 47.461 37.7476 47.6351 37.6192 47.7635C37.4908 47.8919 37.3167 47.9641 37.1351 47.9641Z" fill="white"/>
<path d="M0.846794 25.123C0.665204 25.123 0.491052 25.0508 0.362649 24.9224C0.234246 24.794 0.162109 24.6199 0.162109 24.4383V21.8776C0.162109 21.696 0.234246 21.5218 0.362649 21.3934C0.491052 21.265 0.665204 21.1929 0.846794 21.1929C1.02838 21.1929 1.20254 21.265 1.33094 21.3934C1.45934 21.5218 1.53148 21.696 1.53148 21.8776V24.4383C1.53148 24.6199 1.45934 24.794 1.33094 24.9224C1.20254 25.0508 1.02838 25.123 0.846794 25.123Z" fill="white"/>
<path d="M37.1361 11.3334H27.2081C27.0265 11.3334 26.8524 11.2613 26.724 11.1329C26.5956 11.0045 26.5234 10.8303 26.5234 10.6487V0.720818C26.5234 0.539228 26.5956 0.365076 26.724 0.236672C26.8524 0.108269 27.0265 0.0361328 27.2081 0.0361328C27.3897 0.0361328 27.5639 0.108269 27.6923 0.236672C27.8207 0.365076 27.8928 0.539228 27.8928 0.720818V9.96406H37.1361C37.3176 9.96406 37.4918 10.0362 37.6202 10.1646C37.7486 10.293 37.8207 10.4672 37.8207 10.6487C37.8207 10.8303 37.7486 11.0045 37.6202 11.1329C37.4918 11.2613 37.3176 11.3334 37.1361 11.3334Z" fill="white"/>
<path d="M20.5484 41.8875H17.4345C17.1804 41.887 16.9352 41.7942 16.7446 41.6263C16.554 41.4583 16.431 41.2268 16.3985 40.9748L16.2102 39.4863C15.5699 39.2945 14.9505 39.0385 14.3616 38.7222L13.1826 39.6396C12.9815 39.7958 12.7303 39.8732 12.4762 39.8575C12.2221 39.8417 11.9825 39.7338 11.8022 39.5541L9.59961 37.3514C9.42003 37.1712 9.31227 36.9317 9.29652 36.6778C9.28077 36.4238 9.35809 36.1728 9.51403 35.9718L10.4329 34.79C10.1165 34.2011 9.86053 33.5818 9.66877 32.9414L8.18026 32.7531C7.92829 32.7207 7.69672 32.5977 7.52878 32.407C7.36084 32.2164 7.26799 31.9712 7.26758 31.7172V28.6053C7.26799 28.3512 7.36084 28.106 7.52878 27.9154C7.69672 27.7248 7.92829 27.6018 8.18026 27.5693L9.66877 27.381C9.86066 26.7414 10.1167 26.1227 10.4329 25.5345L9.5154 24.3554C9.35984 24.1544 9.28269 23.9037 9.29831 23.65C9.31393 23.3963 9.42126 23.1569 9.6003 22.9765L11.8022 20.7704C11.9825 20.591 12.222 20.4833 12.4759 20.4676C12.7298 20.4518 12.9808 20.529 13.1819 20.6848L14.3609 21.6023C14.9498 21.286 15.5692 21.03 16.2096 20.8382L16.3978 19.3497C16.4303 19.0977 16.5533 18.8662 16.7439 18.6982C16.9345 18.5303 17.1797 18.4374 17.4338 18.437H20.5477C20.8018 18.4374 21.047 18.5303 21.2376 18.6982C21.4282 18.8662 21.5512 19.0977 21.5836 19.3497L21.7719 20.8382C22.4123 21.03 23.0317 21.286 23.6206 21.6023L24.7996 20.6848C25.0008 20.5285 25.252 20.451 25.5063 20.4667C25.7605 20.4825 26.0003 20.5905 26.1806 20.7704L28.3832 22.973C28.5626 23.1534 28.6701 23.3929 28.6859 23.6467C28.7016 23.9006 28.6245 24.1515 28.4688 24.3527L27.55 25.5345C27.8663 26.1234 28.1223 26.7427 28.3141 27.3831L29.8026 27.5714C30.0546 27.6038 30.2861 27.7268 30.4541 27.9174C30.622 28.1081 30.7149 28.3533 30.7153 28.6073V31.7213C30.7149 31.9753 30.622 32.2205 30.4541 32.4112C30.2861 32.6018 30.0546 32.7248 29.8026 32.7572L28.3141 32.9455C28.1221 33.5845 27.8661 34.2024 27.55 34.79L28.4675 35.969C28.6234 36.1701 28.7007 36.4211 28.685 36.675C28.6692 36.929 28.5615 37.1685 28.3819 37.3487L26.1806 39.5541C26.0005 39.7339 25.761 39.8418 25.507 39.8576C25.2529 39.8734 25.0019 39.7959 24.801 39.6396L23.6192 38.7208C23.0303 39.0371 22.411 39.2931 21.7706 39.4849L21.5823 40.9734C21.5502 41.2253 21.4276 41.4569 21.2374 41.6251C21.0472 41.7932 20.8023 41.8865 20.5484 41.8875ZM17.7213 40.5181H20.2615L20.4717 38.8598C20.489 38.7224 20.5476 38.5936 20.6396 38.4901C20.7316 38.3867 20.8529 38.3137 20.9873 38.2805C21.8111 38.0766 22.5999 37.7507 23.3275 37.3138C23.446 37.2428 23.5832 37.2094 23.721 37.2178C23.8588 37.2263 23.9909 37.2762 24.0999 37.361L25.4131 38.3826L27.2118 36.5839L26.1902 35.2707C26.1054 35.1617 26.0555 35.0297 26.047 34.8918C26.0386 34.754 26.072 34.6168 26.143 34.4983C26.5799 33.7707 26.9057 32.9819 27.1097 32.1581C27.1428 32.0237 27.2159 31.9024 27.3193 31.8104C27.4227 31.7184 27.5516 31.6598 27.689 31.6425L29.3473 31.4323V28.8921L27.6869 28.682C27.5496 28.6646 27.4207 28.6061 27.3173 28.5141C27.2139 28.422 27.1408 28.3008 27.1077 28.1664C26.9037 27.3425 26.5778 26.5537 26.1409 25.8261C26.07 25.7076 26.0365 25.5705 26.045 25.4327C26.0534 25.2948 26.1033 25.1628 26.1882 25.0538L27.2097 23.7406L25.411 21.9419L24.0978 22.9635C23.9889 23.0483 23.8568 23.0982 23.719 23.1066C23.5811 23.1151 23.444 23.0816 23.3255 23.0107C22.5979 22.5738 21.8091 22.2479 20.9852 22.0439C20.8508 22.0108 20.7296 21.9377 20.6375 21.8343C20.5455 21.7309 20.487 21.602 20.4697 21.4647L20.2595 19.8064H17.7193L17.5111 21.4667C17.4938 21.6041 17.4353 21.733 17.3433 21.8364C17.2512 21.9398 17.13 22.0129 16.9956 22.046C16.1717 22.25 15.3829 22.5758 14.6553 23.0128C14.5368 23.0837 14.3997 23.1171 14.2618 23.1087C14.124 23.1003 13.992 23.0504 13.883 22.9655L12.5698 21.944L10.7711 23.7426L11.7927 25.0559C11.8775 25.1648 11.9274 25.2969 11.9358 25.4347C11.9443 25.5725 11.9108 25.7097 11.8399 25.8282C11.403 26.5558 11.0771 27.3446 10.8731 28.1684C10.84 28.3029 10.7669 28.4241 10.6635 28.5161C10.5601 28.6082 10.4312 28.6667 10.2939 28.684L8.63558 28.8942V31.4344L10.2939 31.6446C10.4312 31.6619 10.5601 31.7204 10.6635 31.8125C10.7669 31.9045 10.84 32.0257 10.8731 32.1601C11.0771 32.984 11.403 33.7728 11.8399 34.5004C11.9108 34.6189 11.9443 34.756 11.9358 34.8939C11.9274 35.0317 11.8775 35.1638 11.7927 35.2727L10.7711 36.586L12.5698 38.3846L13.883 37.3631C13.992 37.2782 14.124 37.2283 14.2618 37.2199C14.3997 37.2115 14.5368 37.2449 14.6553 37.3158C15.3829 37.7528 16.1717 38.0786 16.9956 38.2826C17.13 38.3157 17.2512 38.3888 17.3433 38.4922C17.4353 38.5956 17.4938 38.7245 17.5111 38.8618L17.7213 40.5181Z" fill="white"/>
<path d="M18.991 36.6359C17.7052 36.6608 16.4412 36.3023 15.36 35.606C14.2788 34.9098 13.4294 33.9073 12.9201 32.7265C12.4108 31.5457 12.2646 30.2399 12.5002 28.9757C12.7359 27.7115 13.3426 26.5461 14.2431 25.628C15.1436 24.7099 16.2971 24.0808 17.5565 23.8207C18.8159 23.5607 20.1243 23.6816 21.3147 24.168C22.5052 24.6544 23.5239 25.4843 24.2409 26.5518C24.9579 27.6194 25.3408 28.8762 25.3408 30.1622C25.355 31.8621 24.6945 33.4982 23.5042 34.7118C22.3138 35.9253 20.6908 36.6173 18.991 36.6359ZM18.991 25.0579C17.9762 25.033 16.9769 25.3112 16.121 25.8569C15.265 26.4026 14.5911 27.1911 14.1854 28.1217C13.7797 29.0522 13.6607 30.0826 13.8434 31.0811C14.0261 32.0797 14.5024 33.0011 15.2113 33.7277C15.9203 34.4543 16.8297 34.953 17.8235 35.1603C18.8172 35.3675 19.8502 35.2738 20.7905 34.8911C21.7307 34.5084 22.5355 33.8541 23.1021 33.0118C23.6687 32.1695 23.9714 31.1774 23.9714 30.1622C23.986 28.8254 23.4699 27.5374 22.5363 26.5806C21.6027 25.6237 20.3277 25.0761 18.991 25.0579Z" fill="white"/>
<path d="M23.8127 12.2746H5.26867C5.08708 12.2746 4.91293 12.2025 4.78452 12.0741C4.65612 11.9457 4.58398 11.7715 4.58398 11.59C4.58398 11.4084 4.65612 11.2342 4.78452 11.1058C4.91293 10.9774 5.08708 10.9053 5.26867 10.9053H23.8127C23.9943 10.9053 24.1684 10.9774 24.2968 11.1058C24.4252 11.2342 24.4974 11.4084 24.4974 11.59C24.4974 11.7715 24.4252 11.9457 24.2968 12.0741C24.1684 12.2025 23.9943 12.2746 23.8127 12.2746Z" fill="white"/>
<path d="M16.5947 7.48216H5.26867C5.08708 7.48216 4.91293 7.41003 4.78452 7.28162C4.65612 7.15322 4.58398 6.97907 4.58398 6.79748C4.58398 6.61589 4.65612 6.44174 4.78452 6.31333C4.91293 6.18493 5.08708 6.11279 5.26867 6.11279H16.5947C16.7763 6.11279 16.9505 6.18493 17.0789 6.31333C17.2073 6.44174 17.2794 6.61589 17.2794 6.79748C17.2794 6.97907 17.2073 7.15322 17.0789 7.28162C16.9505 7.41003 16.7763 7.48216 16.5947 7.48216Z" fill="white"/>
</svg>
