<svg width="36" height="48" viewBox="0 0 36 48" fill="none" xmlns="http://www.w3.org/2000/svg">
<g clip-path="url(#clip0)">
<path d="M35.0462 0H0.953125C0.564719 0 0.25 0.314812 0.25 0.703125V34.1025C0.25 34.4908 0.564719 34.8056 0.953125 34.8056C1.34153 34.8056 1.65625 34.4908 1.65625 34.1025V1.40625H34.3431V5.82656C34.3431 6.21488 34.6578 6.52969 35.0462 6.52969C35.4347 6.52969 35.7494 6.21488 35.7494 5.82656V0.703125C35.7494 0.314812 35.4347 0 35.0462 0V0Z" fill="white"/>
<path d="M35.0462 8.40479C34.6578 8.40479 34.3431 8.7196 34.3431 9.10791V46.5938H1.65625V37.3838C1.65625 36.9955 1.34153 36.6807 0.953125 36.6807C0.564719 36.6807 0.25 36.9955 0.25 37.3838V47.297C0.25 47.6853 0.564719 48.0001 0.953125 48.0001H35.0462C35.4347 48.0001 35.7494 47.6853 35.7494 47.297V9.10791C35.7494 8.7196 35.4347 8.40479 35.0462 8.40479Z" fill="white"/>
<path d="M3.28125 14.6247C3.28125 17.6233 5.72081 20.0629 8.7195 20.0629C11.7182 20.0629 14.1577 17.6233 14.1577 14.6247C14.1577 11.626 11.7182 9.1864 8.7195 9.1864C5.72081 9.1864 3.28125 11.626 3.28125 14.6247ZM8.7195 18.6567C6.49622 18.6567 4.6875 16.8479 4.6875 14.6247C4.6875 12.6413 6.12731 10.989 8.01637 10.6553V14.6247C8.01637 15.013 8.33109 15.3278 8.7195 15.3278H12.6889C12.355 17.2168 10.7029 18.6567 8.7195 18.6567ZM12.6889 13.9215H9.42262V10.6553C11.0831 10.9487 12.3954 12.261 12.6889 13.9215Z" fill="white"/>
<path d="M4.36133 40.5327C3.97292 40.5327 3.6582 40.8475 3.6582 41.2358V44.2663C3.6582 44.6546 3.97292 44.9694 4.36133 44.9694H8.90708C9.29549 44.9694 9.61021 44.6546 9.61021 44.2663V41.2358C9.61021 40.8475 9.29549 40.5327 8.90708 40.5327H4.36133ZM8.20396 43.5632H5.06445V41.939H8.20396V43.5632Z" fill="white"/>
<path d="M11.9395 44.9698H16.4851C16.8735 44.9698 17.1882 44.655 17.1882 44.2667V36.6904C17.1882 36.3021 16.8735 35.9873 16.4851 35.9873H11.9395C11.551 35.9873 11.2363 36.3021 11.2363 36.6904V44.2667C11.2363 44.655 11.551 44.9698 11.9395 44.9698ZM12.6426 37.3936H15.782V43.5635H12.6426V37.3936Z" fill="white"/>
<path d="M19.5156 30.3051C19.1272 30.3051 18.8125 30.6199 18.8125 31.0082V44.2666C18.8125 44.6549 19.1272 44.9697 19.5156 44.9697H24.0613C24.4497 44.9697 24.7644 44.6549 24.7644 44.2666V31.0082C24.7644 30.6199 24.4497 30.3051 24.0613 30.3051H19.5156ZM23.3582 43.5635H20.2188V31.7113H23.3582V43.5635Z" fill="white"/>
<path d="M31.6368 30.403C32.0252 30.403 32.3399 30.0882 32.3399 29.6999V27.2202C32.3399 26.8319 32.0252 26.5171 31.6368 26.5171H27.0918C26.7034 26.5171 26.3887 26.8319 26.3887 27.2202V44.2658C26.3887 44.6541 26.7034 44.969 27.0918 44.969H31.6367C32.0251 44.969 32.3398 44.6541 32.3398 44.2658V32.9811C32.3398 32.5928 32.0251 32.278 31.6367 32.278C31.2483 32.278 30.9336 32.5928 30.9336 32.9811V43.5627H27.7949V27.9233H30.9336V29.6999C30.9337 30.0882 31.2484 30.403 31.6368 30.403Z" fill="white"/>
<path d="M25.5763 3.03027H10.4238C10.0354 3.03027 9.7207 3.34509 9.7207 3.7334V6.76387C9.7207 7.15218 10.0354 7.467 10.4238 7.467H25.5764C25.9648 7.467 26.2795 7.15218 26.2795 6.76387V3.7334C26.2794 3.34509 25.9647 3.03027 25.5763 3.03027ZM24.8731 6.06074H11.127V4.43652H24.8732V6.06074H24.8731Z" fill="white"/>
<path d="M32.016 9.1864H18C17.6116 9.1864 17.2969 9.50121 17.2969 9.88953C17.2969 10.2778 17.6116 10.5927 18 10.5927H32.016C32.4044 10.5927 32.7191 10.2778 32.7191 9.88953C32.7191 9.50121 32.4043 9.1864 32.016 9.1864Z" fill="white"/>
<path d="M32.016 12.3429H18C17.6116 12.3429 17.2969 12.6577 17.2969 13.046C17.2969 13.4343 17.6116 13.7491 18 13.7491H32.016C32.4044 13.7491 32.7191 13.4343 32.7191 13.046C32.7191 12.6577 32.4043 12.3429 32.016 12.3429Z" fill="white"/>
<path d="M32.7191 16.2029C32.7191 15.8146 32.4044 15.4998 32.016 15.4998H18C17.6116 15.4998 17.2969 15.8146 17.2969 16.2029C17.2969 16.5912 17.6116 16.906 18 16.906H32.016C32.4043 16.906 32.7191 16.5912 32.7191 16.2029Z" fill="white"/>
<path d="M27.037 19.3597C27.037 18.9714 26.7223 18.6566 26.3339 18.6566H18C17.6116 18.6566 17.2969 18.9714 17.2969 19.3597C17.2969 19.7481 17.6116 20.0629 18 20.0629H26.3339C26.7222 20.0629 27.037 19.7481 27.037 19.3597Z" fill="white"/>
<path d="M17.9997 23.2969H5.21484C4.82644 23.2969 4.51172 23.6117 4.51172 24C4.51172 24.3883 4.82644 24.7031 5.21484 24.7031H17.9997C18.3881 24.7031 18.7028 24.3883 18.7028 24C18.7028 23.6117 18.3881 23.2969 17.9997 23.2969Z" fill="white"/>
<path d="M18.7028 27.1569C18.7028 26.7685 18.3881 26.4537 17.9997 26.4537H5.21484C4.82644 26.4537 4.51172 26.7685 4.51172 27.1569C4.51172 27.5452 4.82644 27.86 5.21484 27.86H17.9997C18.3881 27.86 18.7028 27.5452 18.7028 27.1569Z" fill="white"/>
<path d="M13.0208 30.3136C13.0208 29.9253 12.706 29.6105 12.3176 29.6105H5.21484C4.82644 29.6105 4.51172 29.9253 4.51172 30.3136C4.51172 30.7019 4.82644 31.0167 5.21484 31.0167H12.3176C12.7059 31.0167 13.0208 30.7019 13.0208 30.3136Z" fill="white"/>
</g>
<defs>
<clipPath id="clip0">
<rect width="36" height="48" fill="white"/>
</clipPath>
</defs>
</svg>
