<svg width="60" height="52" viewBox="0 0 60 52" fill="none" xmlns="http://www.w3.org/2000/svg">
<path d="M54.8276 8.44484H51.7241V5.34139C51.7241 3.72759 50.9586 2.09311 49.7379 1.07932C48.7448 0.251733 47.5448 -0.0586121 46.3448 0.189664L5.04828 8.44484C2.25517 8.5069 0 10.8035 0 13.6172V46.7207C0 49.5759 2.31724 51.8931 5.17241 51.8931H54.8276C57.6828 51.8931 60 49.5759 60 46.7207V13.6172C60 10.7621 57.6828 8.44484 54.8276 8.44484ZM46.7586 2.21725C47.4828 2.07242 48.0828 2.38277 48.4345 2.69311C49.1793 3.3138 49.6552 4.34828 49.6552 5.34139V8.44484H15.6207L46.7586 2.21725ZM54.8276 49.8241H5.17241C3.45517 49.8241 2.06897 48.4379 2.06897 46.7207V13.6172C2.06897 11.9 3.45517 10.5138 5.17241 10.5138H54.8276C56.5448 10.5138 57.931 11.9 57.931 13.6172V18.7897H34.1379C33.5586 18.7897 33.1034 19.2448 33.1034 19.8241V40.5138C33.1034 41.0931 33.5586 41.5483 34.1379 41.5483H57.931V46.7207C57.931 48.4379 56.5448 49.8241 54.8276 49.8241ZM57.931 20.8586V39.4793H35.1724V20.8586H57.931Z" fill="#013055"/>
<path d="M19.6543 13.1001H5.17154C4.88188 13.1001 4.6543 13.3277 4.6543 13.6173V26.0312C4.6543 26.3208 4.88188 26.5484 5.17154 26.5484C5.46119 26.5484 5.68878 26.3208 5.68878 26.0312V14.1346H19.6543C19.944 14.1346 20.1715 13.907 20.1715 13.6173C20.1715 13.3277 19.944 13.1001 19.6543 13.1001Z" fill="#013055"/>
<path d="M46.0337 35.3414C48.8889 35.3414 51.2062 33.0242 51.2062 30.169C51.2062 27.3138 48.8889 24.9966 46.0337 24.9966C43.1786 24.9966 40.8613 27.3138 40.8613 30.169C40.8613 33.0242 43.1786 35.3414 46.0337 35.3414ZM46.0337 27.0656C47.751 27.0656 49.1372 28.4518 49.1372 30.169C49.1372 31.8862 47.751 33.2724 46.0337 33.2724C44.3165 33.2724 42.9303 31.8862 42.9303 30.169C42.9303 28.4518 44.3165 27.0656 46.0337 27.0656Z" fill="#013055"/>
<path d="M44.3786 31.1C44.6682 31.1 44.8958 30.8724 44.8958 30.5828C44.8958 29.7345 45.5993 29.0311 46.4475 29.0311C46.7372 29.0311 46.9648 28.8035 46.9648 28.5138C46.9648 28.2242 46.7372 27.9966 46.4475 27.9966C45.02 27.9966 43.8613 29.1552 43.8613 30.5828C43.8613 30.8724 44.0889 31.1 44.3786 31.1Z" fill="#013055"/>
</svg>
