<svg width="60" height="60" viewBox="0 0 60 60" fill="none" xmlns="http://www.w3.org/2000/svg">
<path d="M35.4864 0.501087C34.8504 0.383313 34.2386 0.804016 34.1211 1.44046C34.0035 2.07691 34.4241 2.68827 35.0605 2.80581C48.1533 5.22597 57.6562 16.6628 57.6562 30C57.6562 45.2497 45.2497 57.6562 30 57.6562C14.7503 57.6562 2.34375 45.2497 2.34375 30C2.34375 16.6628 11.8466 5.22597 24.9396 2.80581C25.5761 2.68816 25.9966 2.07691 25.879 1.44046C25.7613 0.804016 25.1497 0.383665 24.5136 0.501087C10.3095 3.12667 0 15.5326 0 30C0 38.0132 3.12059 45.5468 8.78684 51.2132C14.4532 56.8794 21.9868 60 30 60C38.0132 60 45.5468 56.8794 51.2132 51.2132C56.8794 45.5468 60 38.0132 60 30C60 15.5326 49.6905 3.12667 35.4864 0.501087Z" fill="#013055"/>
<path d="M11.3038 13.505C10.9738 13.5209 10.6658 13.6754 10.4557 13.9304C6.73594 18.4454 4.6875 24.1524 4.6875 30.0001C4.6875 43.9575 16.0426 55.3126 30 55.3126C35.8475 55.3126 41.5546 53.2641 46.0697 49.5444C46.3247 49.3343 46.4791 49.0263 46.4951 48.6963C46.511 48.3663 46.3868 48.0448 46.1532 47.8112L12.1888 13.8467C11.9552 13.6132 11.6338 13.4892 11.3038 13.505ZM30 52.9688C17.335 52.9688 7.03125 42.6651 7.03125 30.0001C7.03125 25.1271 8.59945 20.3615 11.4702 16.4428L21.5295 26.502L13.7038 34.3277C13.2462 34.7853 13.2462 35.5273 13.7038 35.9851L24.0151 46.2964C24.235 46.5161 24.533 46.6397 24.8438 46.6397C25.1545 46.6397 25.4527 46.5161 25.6724 46.2964L33.4979 38.4707L43.5572 48.53C39.6384 51.4006 34.8729 52.9688 30 52.9688ZM19.6089 31.7372C20.2862 32.739 20.6508 33.9191 20.6508 35.1557C20.6508 35.368 20.6398 35.583 20.6182 35.7949C20.5823 36.1454 20.7062 36.4934 20.9554 36.7427L23.2569 39.0443C23.5065 39.2939 23.8549 39.418 24.2067 39.3812C25.6552 39.2312 27.0811 39.596 28.2614 40.3929L24.8438 43.8104L16.1897 35.1563L19.6089 31.7372ZM29.9409 38.7131C28.3924 37.5413 26.4941 36.9369 24.537 37.0097L22.989 35.4618C22.9927 35.3597 22.9945 35.2575 22.9945 35.1559C22.9945 33.2908 22.3944 31.519 21.2878 30.0583L23.1867 28.1594L31.8407 36.8135L29.9409 38.7131Z" fill="#013055"/>
<path d="M48.6402 46.4965C48.6591 46.4965 48.6778 46.496 48.6967 46.4951C49.0267 46.4791 49.3346 46.3247 49.5446 46.0697C53.2644 41.5546 55.3128 35.8475 55.3128 30C55.3128 16.0426 43.9577 4.6875 30.0003 4.6875C24.1528 4.6875 18.4458 6.73594 13.9307 10.4557C13.6757 10.6658 13.5212 10.9738 13.5053 11.3038C13.4893 11.6338 13.6136 11.9552 13.8471 12.1889L47.8117 46.1534C48.0319 46.3736 48.3302 46.4965 48.6402 46.4965ZM30.0003 7.03125C42.6654 7.03125 52.9691 17.335 52.9691 30C52.9691 34.8729 51.4009 39.6386 48.5302 43.5573L38.4709 33.498L46.2966 25.6724C46.5163 25.4525 46.6398 25.1545 46.6398 24.8438C46.6398 24.533 46.5163 24.2348 46.2966 24.0151L35.9852 13.7038C35.5275 13.2462 34.7857 13.2462 34.3279 13.7038L26.5022 21.5295L16.4429 11.4702C20.3618 8.59945 25.1275 7.03125 30.0003 7.03125ZM40.3917 28.2627C39.7143 27.2609 39.3497 26.0807 39.3497 24.8438C39.3497 24.6305 39.3607 24.4157 39.3823 24.2052C39.4182 23.8545 39.2944 23.5062 39.0451 23.2569L36.7434 20.9554C36.4936 20.7057 36.1439 20.5815 35.7937 20.6184C34.345 20.7684 32.9195 20.4038 31.7393 19.607L35.1566 16.1897L43.8107 24.8438L40.3917 28.2627ZM30.0596 21.2866C31.6078 22.4582 33.5054 23.0621 35.4634 22.9898L37.0113 24.5377C37.0077 24.6397 37.0058 24.7418 37.0058 24.8436C37.0058 26.7089 37.6061 28.4808 38.7127 29.9415L36.8135 31.8407L28.1596 23.1867L30.0596 21.2866Z" fill="#013055"/>
<path d="M30 2.34375C30.6472 2.34375 31.1719 1.81908 31.1719 1.17188C31.1719 0.524666 30.6472 0 30 0C29.3528 0 28.8281 0.524666 28.8281 1.17188C28.8281 1.81908 29.3528 2.34375 30 2.34375Z" fill="#013055"/>
</svg>
