<svg width="60" height="60" viewBox="0 0 60 60" fill="none" xmlns="http://www.w3.org/2000/svg">
<g clip-path="url(#clip0)">
<path d="M43.4238 18.085L50.9801 20.2262C51.0966 20.2585 51.217 20.2754 51.3322 20.2754C51.6714 20.2754 52.0015 20.142 52.2475 19.8961L59.2976 12.8472C59.6226 12.5223 59.752 12.0511 59.6355 11.6057C59.5216 11.1617 59.1772 10.8122 58.7384 10.6866L51.1458 8.53248L48.9904 0.939917C48.8648 0.498474 48.5153 0.156711 48.0713 0.0414959C47.6233 -0.0724249 47.1547 0.0544415 46.8298 0.379375L39.7835 7.42952C39.4495 7.76092 39.3253 8.24638 39.4521 8.69689L41.5933 16.2532L39.8987 17.9478C35.6992 14.3178 30.2452 12.1054 24.2722 12.1054C11.0677 12.1054 0.324219 22.8477 0.324219 36.0521C0.324219 49.2566 11.0677 60.0001 24.2722 60.0001C37.4766 60.0001 48.2175 49.2566 48.2175 36.0521C48.2175 29.7502 45.754 24.027 41.7616 19.7472L43.4238 18.085ZM50.9568 17.5283L45.5236 15.9891L50.4765 11.0336L55.9098 12.5754L50.9568 17.5283ZM42.15 8.72148L47.1016 3.76722L48.6447 9.20176L45.6983 12.1482L43.6905 14.156L42.15 8.72148ZM45.6297 36.0521C45.6297 47.8313 36.05 57.411 24.2735 57.411C12.4956 57.411 2.91462 47.8313 2.91462 36.0521C2.91462 24.2756 12.4956 14.6946 24.2735 14.6946C29.5332 14.6946 34.3451 16.6131 38.0695 19.7783L31.7366 26.1086C29.6549 24.5409 27.0736 23.5998 24.2722 23.5998C17.4033 23.5998 11.816 29.1858 11.816 36.0521C11.816 42.921 17.4033 48.5057 24.2722 48.5057C31.1372 48.5057 36.7206 42.921 36.7206 36.0521C36.7206 32.9206 35.5516 30.0622 33.6331 27.8718L39.9285 21.5777C43.4575 25.3863 45.6297 30.4635 45.6297 36.0521ZM26.7383 36.0521C26.7383 37.4114 25.6328 38.5169 24.2735 38.5169C22.9129 38.5169 21.8073 37.4114 21.8073 36.0521C21.8073 34.6928 22.9129 33.5886 24.2735 33.5886C25.6315 33.586 26.7383 34.6928 26.7383 36.0521ZM26.3771 31.4694C25.7337 31.1729 25.0256 30.9969 24.2735 30.9969C21.4863 30.9969 19.2182 33.2636 19.2182 36.0508C19.2182 38.838 21.4863 41.1048 24.2735 41.1048C27.0606 41.1048 29.3274 38.838 29.3274 36.0508C29.3274 34.9582 28.9714 33.9536 28.3811 33.1251L31.8065 29.6997C33.2551 31.4163 34.1328 33.6313 34.1328 36.0495C34.1328 41.4892 29.7093 45.914 24.2735 45.914C18.8325 45.914 14.4064 41.4892 14.4064 36.0495C14.4064 30.6111 18.8325 26.1863 24.2735 26.1863C26.3603 26.1863 28.2944 26.8427 29.8905 27.9534L26.3771 31.4694Z" fill="#013055"/>
</g>
<defs>
<clipPath id="clip0">
<rect width="59.9987" height="60" fill="white"/>
</clipPath>
</defs>
</svg>
