<svg width="64" height="60" viewBox="0 0 64 60" fill="none" xmlns="http://www.w3.org/2000/svg">
<g clip-path="url(#clip0)">
<path d="M53.0454 8.72718C49.5978 5.28031 45.3601 2.72833 40.7009 1.29338C36.0418 -0.141577 31.1025 -0.416005 26.3131 0.49398C21.5237 1.40396 17.0292 3.47078 13.221 6.51452C9.41285 9.55825 6.40632 13.4867 4.46315 17.9578C3.93292 18.0512 3.43779 18.2862 3.03014 18.6379C2.62248 18.9896 2.31744 19.4449 2.14729 19.9557C1.97714 20.4665 1.94819 21.0138 2.06351 21.5397C2.17883 22.0656 2.43414 22.5506 2.80242 22.9433C0.991142 30.586 2.25096 38.6343 6.31103 45.3579C4.909 48.0178 4.12128 50.9582 4.00585 53.9627C3.33815 54.1945 2.77412 54.6552 2.41379 55.2633C2.05347 55.8713 1.92014 56.5873 2.03745 57.2842C2.15476 57.9812 2.51514 58.6141 3.05466 59.0707C3.59418 59.5272 4.27797 59.778 4.98474 59.7784H20.9341C21.4072 59.7782 21.8734 59.6657 22.2945 59.4502C22.7156 59.2347 23.0795 58.9222 23.3563 58.5386C29.7341 60.4386 36.5635 60.1572 42.7634 57.739C48.9634 55.3209 54.1797 50.904 57.5869 45.1876C60.9941 39.4711 62.3975 32.7816 61.5749 26.1778C60.7523 19.574 57.7508 13.4331 53.0454 8.72718ZM4.98474 19.9049H20.9341C21.1985 19.9049 21.452 20.01 21.639 20.1969C21.8259 20.3839 21.9309 20.6374 21.9309 20.9018C21.9309 21.1662 21.8259 21.4197 21.639 21.6067C21.452 21.7936 21.1985 21.8986 20.9341 21.8986H4.98474C4.72037 21.8986 4.46682 21.7936 4.27988 21.6067C4.09293 21.4197 3.98791 21.1662 3.98791 20.9018C3.98791 20.6374 4.09293 20.3839 4.27988 20.1969C4.46682 20.01 4.72037 19.9049 4.98474 19.9049ZM14.5902 35.8045C14.3331 36.0613 14.1097 36.3497 13.9252 36.6628C13.8173 36.8184 13.673 36.9453 13.5049 37.0327C13.3369 37.12 13.1501 37.1651 12.9607 37.164C12.7708 37.1652 12.5835 37.12 12.4149 37.0325C12.2464 36.945 12.1017 36.8178 11.9934 36.6619C11.809 36.3492 11.5857 36.0611 11.3289 35.8045C11.0222 35.4978 10.7281 35.1821 10.4465 34.8575H15.4728C15.1907 35.1815 14.8965 35.4971 14.5902 35.8045ZM16.981 32.8638H8.93782C7.18526 30.185 6.17482 27.0892 6.00961 23.8923H19.9099C19.7445 27.0892 18.7338 30.1851 16.981 32.8638ZM9.91908 37.214C10.2872 37.5815 10.5201 38.0629 10.5796 38.5797C10.6391 39.0965 10.5218 39.6183 10.2468 40.0598C9.62014 38.7355 9.11831 37.3557 8.7478 35.9382C9.11837 36.3769 9.5088 36.8022 9.91908 37.214ZM11.3286 41.8852C12.0644 41.1499 12.5074 40.1718 12.5746 39.1338C12.7024 39.1494 12.8311 39.1572 12.9598 39.1572H12.9607C13.0885 39.1572 13.2161 39.1494 13.343 39.1339C13.4103 40.1719 13.8532 41.1499 14.589 41.8852C17.3898 44.6703 19.2037 48.2945 19.7545 52.2058L13.6631 46.1144C13.5705 46.0218 13.4606 45.9484 13.3397 45.8983C13.2187 45.8482 13.0891 45.8224 12.9582 45.8224C12.8273 45.8224 12.6976 45.8482 12.5767 45.8983C12.4558 45.9484 12.3459 46.0218 12.2533 46.1144L6.16313 52.206C6.71384 48.2946 8.52774 44.6704 11.3286 41.8852ZM12.9594 48.2292L18.5275 53.7974H7.39135L12.9594 48.2292ZM21.0783 48.9489L21.7974 49.3639L22.7942 47.6374L21.0677 46.6406L20.5785 47.4879C19.5589 44.8563 17.9991 42.4675 15.9998 40.4757C15.7856 40.2615 15.6157 40.0073 15.4997 39.7274C15.3838 39.4476 15.3242 39.1477 15.3242 38.8448C15.3242 38.5419 15.3838 38.242 15.4997 37.9622C15.6157 37.6824 15.7856 37.4281 15.9998 37.214C19.6056 33.628 21.7185 28.8087 21.9126 23.7269C22.5803 23.4952 23.1443 23.0345 23.5046 22.4265C23.865 21.8185 23.9983 21.1025 23.8811 20.4056C23.7638 19.7086 23.4035 19.0757 22.864 18.6192C22.3246 18.1626 21.6409 17.9118 20.9341 17.9113H11.1758C13.2757 14.2734 16.2965 11.2526 19.9343 9.15278C23.5722 7.05292 27.6989 5.94804 31.8993 5.94925C45.091 5.94925 55.8234 16.6816 55.8234 29.8733C55.8234 43.0651 45.091 53.7974 31.8993 53.7974C28.3591 53.8072 24.8619 53.0229 21.6649 51.5023C21.525 50.6393 21.3291 49.7864 21.0783 48.9489ZM3.98791 29.8733C3.98857 28.6154 4.07345 27.3589 4.24198 26.1124C4.55626 28.0991 5.16804 30.0272 6.05672 31.8317C6.3062 35.2631 7.24463 38.6091 8.81596 41.6697C8.34148 42.2255 7.89737 42.8065 7.48555 43.4102C5.18715 39.2689 3.98331 34.6097 3.98791 29.8733ZM20.9341 57.7847H4.98474C4.72037 57.7847 4.46682 57.6797 4.27988 57.4927C4.09293 57.3058 3.98791 57.0522 3.98791 56.7879C3.98791 56.5235 4.09293 56.2699 4.27988 56.083C4.46682 55.896 4.72037 55.791 4.98474 55.791H20.9341C21.1985 55.791 21.452 55.896 21.639 56.083C21.8259 56.2699 21.9309 56.5235 21.9309 56.7879C21.9309 57.0522 21.8259 57.3058 21.639 57.4927C21.452 57.6797 21.1985 57.7847 20.9341 57.7847ZM51.6356 49.6096C48.0753 53.1657 43.621 55.6947 38.7429 56.9296C33.8647 58.1645 28.7436 58.0596 23.9201 56.6259C23.8872 56.0329 23.6788 55.4632 23.3214 54.9889C22.964 54.5147 22.4738 54.1573 21.9129 53.9622C21.9106 53.9056 21.9094 53.8489 21.9066 53.7925C25.0704 55.12 28.4683 55.7996 31.8993 55.791C46.1903 55.791 57.817 44.1643 57.817 29.8733C57.817 15.5823 46.1903 3.95558 31.8993 3.95558C27.1562 3.95381 22.5037 5.25427 18.4489 7.71517C14.3942 10.1761 11.0929 13.703 8.90505 17.9113H6.67338C8.41664 14.2351 10.9424 10.9845 14.0738 8.38692C17.2052 5.78937 20.8666 3.90772 24.8016 2.87373C28.7365 1.83974 32.85 1.6784 36.8538 2.40101C40.8577 3.12362 44.6552 4.71271 47.9804 7.05701C51.3057 9.40131 54.0783 12.4442 56.1041 15.9725C58.13 19.5008 59.36 23.4293 59.7082 27.4829C60.0564 31.5365 59.5143 35.6173 58.1199 39.4394C56.7255 43.2615 54.5124 46.7326 51.6356 49.6096Z" fill="#013055"/>
<path d="M30.9023 7.94287H32.896V11.9302H30.9023V7.94287Z" fill="#013055"/>
<path d="M49.8418 28.8765H53.8291V30.8701H49.8418V28.8765Z" fill="#013055"/>
<path d="M30.9023 47.8164H32.896V51.8037H30.9023V47.8164Z" fill="#013055"/>
<path d="M20.0703 11.3794L21.7967 10.3826L22.7936 12.1091L21.0671 13.1059L20.0703 11.3794Z" fill="#013055"/>
<path d="M41.002 47.6362L42.7284 46.6395L43.7252 48.366L41.9988 49.3628L41.002 47.6362Z" fill="#013055"/>
<path d="M48.666 40.7061L49.6629 38.9795L51.3894 39.9764L50.3925 41.7029L48.666 40.7061Z" fill="#013055"/>
<path d="M48.6641 19.041L50.3906 18.0442L51.3874 19.7707L49.6609 20.7675L48.6641 19.041Z" fill="#013055"/>
<path d="M41.002 12.1094L41.9988 10.3829L43.7252 11.3796L42.7284 13.1061L41.002 12.1094Z" fill="#013055"/>
<path d="M33.5644 32.3557L39.5578 35.5456L37.9153 35.9857L38.4313 37.9115L42.5164 36.8169C42.6429 36.7831 42.7615 36.7246 42.8653 36.6449C42.9692 36.5652 43.0564 36.4658 43.1218 36.3524C43.1873 36.239 43.2298 36.1138 43.2468 35.984C43.2639 35.8542 43.2552 35.7223 43.2213 35.5958L42.1267 31.5108L40.2009 32.0268L40.7018 33.8958L34.7625 30.7341C34.9839 29.9984 34.9135 29.2056 34.5658 28.5204C34.2181 27.8352 33.6199 27.3102 32.8954 27.0544V16.3307L34.1841 17.6195L35.5939 16.2097L32.6034 13.2192C32.5108 13.1267 32.4009 13.0532 32.28 13.0031C32.1591 12.953 32.0294 12.9272 31.8985 12.9272C31.7676 12.9272 31.638 12.953 31.517 13.0031C31.3961 13.0532 31.2862 13.1267 31.1936 13.2192L28.2031 16.2097L29.6129 17.6195L30.9017 16.3307V27.0544C30.5009 27.1953 30.1347 27.4199 29.8274 27.7133C29.5202 28.0068 29.2791 28.3623 29.12 28.7563C28.961 29.1502 28.8877 29.5735 28.905 29.998C28.9224 30.4225 29.03 30.8384 29.2207 31.2181C29.4114 31.5977 29.6808 31.9324 30.0109 32.1998C30.341 32.4672 30.7244 32.6611 31.1354 32.7688C31.5463 32.8764 31.9755 32.8952 32.3944 32.824C32.8132 32.7528 33.212 32.5932 33.5644 32.3557ZM30.9017 29.8735C30.9017 29.6763 30.9601 29.4836 31.0697 29.3197C31.1792 29.1557 31.3349 29.028 31.517 28.9525C31.6992 28.8771 31.8996 28.8573 32.093 28.8958C32.2864 28.9343 32.464 29.0292 32.6034 29.1686C32.7428 29.308 32.8377 29.4856 32.8762 29.679C32.9147 29.8724 32.8949 30.0728 32.8195 30.255C32.744 30.4371 32.6163 30.5928 32.4523 30.7023C32.2884 30.8119 32.0957 30.8703 31.8985 30.8703C31.6342 30.87 31.3809 30.7649 31.194 30.578C31.0071 30.3912 30.902 30.1378 30.9017 29.8735Z" fill="#013055"/>
</g>
<defs>
<clipPath id="clip0">
<rect width="63.7975" height="60" fill="white"/>
</clipPath>
</defs>
</svg>
