<svg width="60" height="60" viewBox="0 0 60 60" fill="none" xmlns="http://www.w3.org/2000/svg">
<path d="M52 0H8C7.44775 0 7 0.44775 7 1V59C7 59.5522 7.44775 60 8 60H52C52.5522 60 53 59.5522 53 59V1C53 0.44775 52.5522 0 52 0ZM51 58H9V2H51V58Z" fill="#013055"/>
<path d="M47.7054 48.3458C47.3504 47.9616 46.7594 47.9159 46.3495 48.2409L40.4785 53.2719L39.9475 51.6839C39.773 51.1593 39.2062 50.8754 38.6815 51.0499C38.1569 51.2244 37.873 51.7913 38.0475 52.3159L39.0475 55.3159C39.1525 55.6318 39.4078 55.8747 39.7285 55.9639C39.8168 55.988 39.908 56.0002 39.9995 55.9999C40.2382 56.0003 40.4689 55.9147 40.6495 55.7589L47.6495 49.7589C48.0552 49.3842 48.0803 48.7514 47.7054 48.3458Z" fill="#013055"/>
<path d="M30 4C27.7909 4 26 5.79087 26 8C26 10.2091 27.7909 12 30 12C32.2091 12 34 10.2091 34 8C34 5.79087 32.2091 4 30 4ZM30 10C28.8954 10 28 9.10462 28 8C28 6.89537 28.8954 6 30 6C31.1046 6 32 6.89537 32 8C32 9.10462 31.1046 10 30 10Z" fill="#013055"/>
<path d="M46 16H14C13.4477 16 13 16.4477 13 17C13 17.5522 13.4477 18 14 18H46C46.5522 18 47 17.5522 47 17C47 16.4477 46.5522 16 46 16Z" fill="#013055"/>
<path d="M46 22H14C13.4477 22 13 22.4477 13 23C13 23.5522 13.4477 24 14 24H46C46.5522 24 47 23.5522 47 23C47 22.4477 46.5522 22 46 22Z" fill="#013055"/>
<path d="M46 27H14C13.4477 27 13 27.4477 13 28C13 28.5522 13.4477 29 14 29H46C46.5522 29 47 28.5522 47 28C47 27.4477 46.5522 27 46 27Z" fill="#013055"/>
<path d="M46 33H14C13.4477 33 13 33.4478 13 34C13 34.5523 13.4477 35 14 35H46C46.5522 35 47 34.5523 47 34C47 33.4478 46.5522 33 46 33Z" fill="#013055"/>
<path d="M46 38H14C13.4477 38 13 38.4478 13 39C13 39.5523 13.4477 40 14 40H46C46.5522 40 47 39.5523 47 39C47 38.4478 46.5522 38 46 38Z" fill="#013055"/>
<path d="M22 50H14C13.4477 50 13 50.4477 13 51C13 51.5523 13.4477 52 14 52H22C22.5522 52 23 51.5523 23 51C23 50.4477 22.5522 50 22 50Z" fill="#013055"/>
<path d="M21 54H15C14.4477 54 14 54.4478 14 55C14 55.5523 14.4477 56 15 56H21C21.5522 56 22 55.5523 22 55C22 54.4478 21.5522 54 21 54Z" fill="#013055"/>
</svg>
