<svg width="60" height="60" viewBox="0 0 60 60" fill="none" xmlns="http://www.w3.org/2000/svg">
<g clip-path="url(#clip0)">
<path d="M8.03516 4.99763V54.9723C8.03845 57.7311 10.274 59.9667 13.0324 59.97H47.0154C49.7742 59.9667 52.0097 57.7311 52.013 54.9723V4.99763C52.0097 2.23883 49.7742 0.00329361 47.0154 0H13.0324C10.274 0.00329361 8.03845 2.23883 8.03516 4.99763ZM10.034 4.99763C10.034 3.34136 11.3765 1.99881 13.0324 1.99881H47.0154C48.6712 1.99881 50.0138 3.34136 50.0138 4.99763V54.9723C50.0138 56.6286 48.6712 57.9707 47.0154 57.9707H13.0324C11.3765 57.9707 10.034 56.6286 10.034 54.9723V4.99763Z" fill="#013055"/>
<path d="M14.0328 18.9903H46.0166C46.5687 18.9903 47.0162 18.5428 47.0162 17.9907V6.99627C47.0162 6.44418 46.5687 5.99707 46.0166 5.99707H14.0328C13.4807 5.99707 13.0332 6.44418 13.0332 6.99627V17.9907C13.0332 18.5428 13.4807 18.9903 14.0328 18.9903ZM15.0324 7.99588H45.0174V16.9915H15.0324V7.99588Z" fill="#013055"/>
<path d="M34.023 20.9893H26.027C25.4749 20.9893 25.0273 21.4368 25.0273 21.9889V29.9849C25.0273 30.537 25.4749 30.9845 26.027 30.9845H34.023C34.5747 30.9845 35.0222 30.537 35.0222 29.9849V21.9889C35.0222 21.4368 34.5751 20.9893 34.023 20.9893ZM33.0234 28.9853H27.0261V22.9885H33.0234V28.9853Z" fill="#013055"/>
<path d="M46.0171 20.9893H38.0211C37.469 20.9893 37.0215 21.4368 37.0215 21.9889V29.9849C37.0215 30.537 37.469 30.9845 38.0211 30.9845H46.0171C46.5688 30.9845 47.0163 30.537 47.0163 29.9849V21.9889C47.0163 21.4368 46.5688 20.9893 46.0171 20.9893ZM45.0175 28.9853H39.0203V22.9885H45.0175V28.9853Z" fill="#013055"/>
<path d="M14.0328 30.9845H22.0289C22.5809 30.9845 23.0285 30.537 23.0285 29.9849V21.9889C23.0285 21.4368 22.5809 20.9893 22.0289 20.9893H14.0328C13.4807 20.9893 13.0332 21.4368 13.0332 21.9889V29.9849C13.0332 30.537 13.4807 30.9845 14.0328 30.9845ZM15.0324 22.9885H21.0292V28.9853H15.0324V22.9885Z" fill="#013055"/>
<path d="M34.023 32.9834H26.027C25.4749 32.9834 25.0273 33.4309 25.0273 33.983V41.979C25.0273 42.5311 25.4749 42.9782 26.027 42.9782H34.023C34.5747 42.9782 35.0222 42.5311 35.0222 41.979V33.983C35.0222 33.4309 34.5751 32.9834 34.023 32.9834ZM33.0234 40.9794H27.0261V34.9826H33.0234V40.9794Z" fill="#013055"/>
<path d="M46.0171 32.9834H38.0211C37.469 32.9834 37.0215 33.4309 37.0215 33.983V53.9727C37.0215 54.5248 37.469 54.9723 38.0211 54.9723H46.0171C46.5688 54.9723 47.0163 54.5248 47.0163 53.9727V33.983C47.0163 33.4309 46.5688 32.9834 46.0171 32.9834ZM45.0175 52.9735H39.0203V34.9826H45.0175V52.9735Z" fill="#013055"/>
<path d="M14.0328 42.9782H22.0289C22.5809 42.9782 23.0285 42.5311 23.0285 41.979V33.983C23.0285 33.4309 22.5809 32.9834 22.0289 32.9834H14.0328C13.4807 32.9834 13.0332 33.4309 13.0332 33.983V41.979C13.0332 42.5311 13.4807 42.9782 14.0328 42.9782ZM15.0324 34.9826H21.0292V40.9794H15.0324V34.9826Z" fill="#013055"/>
<path d="M34.023 44.9775H26.027C25.4749 44.9775 25.0273 45.4251 25.0273 45.9771V53.9728C25.0273 54.5249 25.4749 54.9724 26.027 54.9724H34.023C34.5747 54.9724 35.0222 54.5249 35.0222 53.9728V45.9771C35.0222 45.4251 34.5751 44.9775 34.023 44.9775ZM33.0234 52.9736H27.0261V46.9763H33.0234V52.9736Z" fill="#013055"/>
<path d="M14.0328 54.9724H22.0289C22.5809 54.9724 23.0285 54.5249 23.0285 53.9728V45.9771C23.0285 45.4251 22.5809 44.9775 22.0289 44.9775H14.0328C13.4807 44.9775 13.0332 45.4251 13.0332 45.9771V53.9728C13.0332 54.5249 13.4807 54.9724 14.0328 54.9724ZM15.0324 46.9768H21.0292V52.9736H15.0324V46.9768Z" fill="#013055"/>
<path d="M41.0195 12.9932H43.0184V14.9924H41.0195V12.9932Z" fill="#013055"/>
<path d="M37.0215 12.9932H39.0203V14.9924H37.0215V12.9932Z" fill="#013055"/>
<path d="M33.0234 12.9932H35.0222V14.9924H33.0234V12.9932Z" fill="#013055"/>
</g>
<defs>
<clipPath id="clip0">
<rect width="60" height="60" fill="white"/>
</clipPath>
</defs>
</svg>
