<svg width="60" height="60" viewBox="0 0 60 60" fill="none" xmlns="http://www.w3.org/2000/svg">
<path d="M31.4834 28.5175C31.0252 28.0593 30.2834 28.0593 29.8252 28.5175C29.3682 28.9745 29.3682 29.7163 29.8252 30.1745C30.2834 30.6315 31.0252 30.6315 31.4834 30.1745C31.9404 29.7163 31.9404 28.9745 31.4834 28.5175Z" fill="#013055"/>
<path d="M46.398 13.6021C44.1082 11.3124 40.4013 11.3123 38.1113 13.6021C35.8275 15.886 35.8274 19.6031 38.1117 21.8889C40.3964 24.1722 44.1135 24.1731 46.398 21.8886C48.6876 19.599 48.6881 15.8921 46.398 13.6021ZM44.7407 20.2313C43.3705 21.6017 41.1399 21.6017 39.7689 20.2315C38.3984 18.8602 38.3983 16.6296 39.7687 15.2594C41.1425 13.8856 43.3667 13.8853 44.7407 15.2594C46.1145 16.633 46.1147 18.8574 44.7407 20.2313Z" fill="#013055"/>
<path d="M59.6564 0.343253C59.4262 0.113214 59.1122 -0.0114729 58.7857 0.000831796C58.5207 0.010324 52.212 0.263917 44.7126 2.91458C38.7032 5.03637 33.6943 8.07421 29.8248 11.9437C28.9578 12.8108 28.114 13.7303 27.3067 14.6855C23.4808 12.4333 20.4149 13.1395 18.4768 14.1767C14.0142 16.565 11.252 23.0497 11.252 27.688C11.2523 28.1619 11.5379 28.5893 11.9757 28.7705C12.1207 28.8307 12.273 28.8598 12.4239 28.8598C12.729 28.8598 13.0286 28.7407 13.2528 28.5166C15.6063 26.1631 18.5091 26.3103 19.4574 26.435L19.8678 26.8454C19.0601 28.7673 18.4095 30.6784 17.9323 32.5371C17.7601 33.2097 17.8182 33.9215 18.0742 34.5726C16.946 35.0926 15.8574 35.856 14.9096 36.8038C11.8931 39.8205 11.2805 47.1721 11.2559 47.4836C11.229 47.8254 11.353 48.162 11.5954 48.4044C11.8161 48.625 12.1146 48.7477 12.4239 48.7477C12.4546 48.7477 12.4855 48.7465 12.5163 48.7441C12.8278 48.7196 20.1796 48.107 23.1961 45.0905C24.1436 44.1431 24.907 43.0546 25.4269 41.9266C26.1162 42.1976 26.8257 42.231 27.4636 42.0675C29.3215 41.5905 31.2324 40.9401 33.1545 40.1323L33.5649 40.5427C33.6894 41.4911 33.8366 44.394 31.4833 46.7472C31.1482 47.0823 31.0479 47.5864 31.2293 48.0242C31.4106 48.4621 31.8379 48.7476 32.3119 48.7476C36.9502 48.7476 43.4347 45.9854 45.823 41.5227C46.8602 39.5848 47.5664 36.519 45.3143 32.6929C46.269 31.886 47.1886 31.0422 48.056 30.1748C51.9255 26.3053 54.9633 21.2963 57.0851 15.2874C59.7358 7.78769 59.9893 1.4788 59.9988 1.21395C60.0105 0.88876 59.8864 0.573409 59.6564 0.343253ZM13.872 25.1674C14.6 21.6444 16.7144 17.7785 19.5831 16.2431C21.5002 15.2172 23.5956 15.3178 25.8236 16.5374C23.9255 19.0337 22.2754 21.7231 20.9 24.5632C20.8825 24.5524 20.6716 24.2872 20.2797 24.1988C20.1186 24.1624 17.0179 23.4955 13.872 25.1674ZM21.5389 43.4331C19.9276 45.0445 16.1477 45.8943 13.7586 46.2413C14.1057 43.8521 14.9557 40.0723 16.5669 38.4611C17.4692 37.5588 18.5155 36.8746 19.5671 36.4893L23.5107 40.4329C23.1254 41.4845 22.4413 42.5308 21.5389 43.4331ZM26.8815 39.7972C26.5423 39.884 26.1495 39.7565 25.8575 39.4649C24.3414 37.9489 23.7483 37.3558 23.5622 37.1698C23.221 36.8286 22.3842 35.9917 20.5358 34.1432C20.2435 33.8504 20.116 33.4577 20.2026 33.1191C20.578 31.6573 21.0688 30.1576 21.6658 28.6434L31.3566 38.3342C29.8422 38.9313 28.3427 39.422 26.8815 39.7972ZM43.7569 40.4168C42.2215 43.2855 38.3557 45.4 34.8328 46.1279C35.9561 44.0141 36.2037 41.3234 35.7933 39.6918C35.698 39.3128 35.4508 39.1223 35.4369 39.0999C38.2767 37.7245 40.9661 36.0744 43.4626 34.1763C44.6822 36.4045 44.7826 38.5001 43.7569 40.4168ZM46.399 28.5175C45.343 29.5734 44.206 30.5935 43.0193 31.5494C40.1667 33.8463 37.0271 35.7918 33.6774 37.3406L22.6594 26.3229C24.2082 22.9729 26.1537 19.8333 28.4504 16.981C29.4071 15.7936 30.4271 14.6564 31.4826 13.601C34.9543 10.1292 39.4348 7.36617 44.8034 5.37727L54.6227 15.1966C52.6341 20.5651 49.871 25.0456 46.399 28.5175ZM55.4659 12.725L47.275 4.5341C51.7376 3.14801 55.6199 2.62899 57.5577 2.44243C57.371 4.38059 56.8519 8.26289 55.4659 12.725Z" fill="#013055"/>
<path d="M28.168 48.4041C27.7102 47.9465 26.9681 47.9467 26.5106 48.4044L23.1966 51.7196C22.7391 52.1773 22.7392 52.9194 23.1968 53.3769C23.6547 53.8344 24.3967 53.8344 24.8542 53.3766L28.1682 50.0614C28.6257 49.6037 28.6256 48.8616 28.168 48.4041Z" fill="#013055"/>
<path d="M11.5952 31.8316C11.1377 31.3739 10.3958 31.3739 9.93791 31.8314L6.62269 35.1454C6.16495 35.6029 6.16483 36.345 6.62233 36.8027C7.07972 37.2602 7.82163 37.2607 8.2796 36.8029L11.5948 33.4889C12.0526 33.0314 12.0527 32.2893 11.5952 31.8316Z" fill="#013055"/>
<path d="M19.8822 50.0625C19.4248 49.6048 18.6827 49.6048 18.2249 50.0623L10.2867 57.9994C9.82894 58.4571 9.82894 59.1991 10.2866 59.6567C10.7439 60.1143 11.4861 60.1146 11.9438 59.6568L19.8821 51.7197C20.3398 51.2621 20.3398 50.5201 19.8822 50.0625Z" fill="#013055"/>
<path d="M10.5072 50.0625C10.0497 49.6048 9.30756 49.6048 8.84994 50.0623L0.911674 57.9994C0.453941 58.4571 0.453941 59.1991 0.911557 59.6567C1.36894 60.1143 2.11109 60.1146 2.56882 59.6568L10.5071 51.7197C10.9648 51.2621 10.9648 50.5201 10.5072 50.0625Z" fill="#013055"/>
<path d="M9.93755 40.1175C9.48006 39.66 8.73791 39.66 8.28029 40.1176L0.343198 48.0559C-0.114419 48.5136 -0.114419 49.2555 0.343315 49.7133C0.800931 50.1709 1.54296 50.1709 2.00058 49.7132L9.93767 41.7749C10.3953 41.3172 10.3953 40.5753 9.93755 40.1175Z" fill="#013055"/>
<path d="M36.4545 23.5454C35.9967 23.0877 35.255 23.0877 34.7971 23.5454L33.1401 25.2024C32.6825 25.66 32.6825 26.402 33.1401 26.8598C33.5978 27.3174 34.3397 27.3174 34.7975 26.8598L36.4545 25.2027C36.9121 24.7451 36.9121 24.0031 36.4545 23.5454Z" fill="#013055"/>
</svg>
