<svg width="60" height="60" viewBox="0 0 60 60" fill="none" xmlns="http://www.w3.org/2000/svg">
<g clip-path="url(#clip0)">
<path d="M58.75 60H1.25C0.56 60 0 59.44 0 58.75C0 58.06 0.56 57.5 1.25 57.5H58.75C59.44 57.5 60 58.06 60 58.75C60 59.44 59.44 60 58.75 60Z" fill="#013055"/>
<path d="M56.25 60H43.75C43.06 60 42.5 59.44 42.5 58.75V45C42.5 43.6225 43.6225 42.5 45 42.5H55C56.3775 42.5 57.5 43.6225 57.5 45V58.75C57.5 59.44 56.94 60 56.25 60ZM45 57.5H55V45H45V57.5Z" fill="#013055"/>
<path d="M36.25 60H23.75C23.06 60 22.5 59.44 22.5 58.75V30C22.5 28.6225 23.6225 27.5 25 27.5H35C36.3775 27.5 37.5 28.6225 37.5 30V58.75C37.5 59.44 36.94 60 36.25 60ZM25 57.5H35V30H25V57.5Z" fill="#013055"/>
<path d="M16.25 60H3.75C3.06 60 2.5 59.44 2.5 58.75V15C2.5 13.6225 3.6225 12.5 5 12.5H15C16.3775 12.5 17.5 13.6225 17.5 15V58.75C17.5 59.44 16.94 60 16.25 60ZM5 57.5H15V15H5V57.5Z" fill="#013055"/>
<path d="M53.7506 27.5C53.4306 27.5 53.1106 27.3775 52.8656 27.135L30.3656 4.63502C29.8781 4.14752 29.8781 3.35502 30.3656 2.86752C30.8531 2.38002 31.6456 2.38002 32.1331 2.86752L54.6331 25.3675C55.1206 25.855 55.1206 26.6475 54.6331 27.135C54.3906 27.3775 54.0706 27.5 53.7506 27.5Z" fill="#013055"/>
<path d="M53.75 27.5H43.75C43.06 27.5 42.5 26.94 42.5 26.25C42.5 25.56 43.06 25 43.75 25H52.5V16.25C52.5 15.56 53.06 15 53.75 15C54.44 15 55 15.56 55 16.25V26.25C55 26.94 54.44 27.5 53.75 27.5Z" fill="#013055"/>
</g>
<defs>
<clipPath id="clip0">
<rect width="60" height="60" fill="white"/>
</clipPath>
</defs>
</svg>
