<svg width="60" height="52" viewBox="0 0 60 52" fill="none" xmlns="http://www.w3.org/2000/svg">
<path d="M54.8276 8.44502H51.7241V5.34157C51.7241 3.72778 50.9586 2.09329 49.7379 1.0795C48.7448 0.251916 47.5448 -0.058429 46.3448 0.189847L5.04828 8.44502C2.25517 8.50709 0 10.8036 0 13.6174V46.7209C0 49.5761 2.31724 51.8933 5.17241 51.8933H54.8276C57.6828 51.8933 60 49.5761 60 46.7209V13.6174C60 10.7623 57.6828 8.44502 54.8276 8.44502ZM46.7586 2.21743C47.4828 2.07261 48.0828 2.38295 48.4345 2.6933C49.1793 3.31398 49.6552 4.34847 49.6552 5.34157V8.44502H15.6207L46.7586 2.21743ZM54.8276 49.8243H5.17241C3.45517 49.8243 2.06897 48.4381 2.06897 46.7209V13.6174C2.06897 11.9002 3.45517 10.514 5.17241 10.514H54.8276C56.5448 10.514 57.931 11.9002 57.931 13.6174V18.7898H34.1379C33.5586 18.7898 33.1034 19.245 33.1034 19.8243V40.514C33.1034 41.0933 33.5586 41.5485 34.1379 41.5485H57.931V46.7209C57.931 48.4381 56.5448 49.8243 54.8276 49.8243ZM57.931 20.8588V39.4795H35.1724V20.8588H57.931Z" fill="#013055"/>
<path d="M19.6562 13.1002H5.17349C4.88384 13.1002 4.65625 13.3278 4.65625 13.6175V26.0313C4.65625 26.3209 4.88384 26.5485 5.17349 26.5485C5.46315 26.5485 5.69073 26.3209 5.69073 26.0313V14.1347H19.6562C19.9459 14.1347 20.1735 13.9071 20.1735 13.6175C20.1735 13.3278 19.9459 13.1002 19.6562 13.1002Z" fill="#013055"/>
<path d="M46.0357 35.3416C48.8909 35.3416 51.2081 33.0244 51.2081 30.1692C51.2081 27.314 48.8909 24.9968 46.0357 24.9968C43.1805 24.9968 40.8633 27.314 40.8633 30.1692C40.8633 33.0244 43.1805 35.3416 46.0357 35.3416ZM46.0357 27.0657C47.7529 27.0657 49.1391 28.4519 49.1391 30.1692C49.1391 31.8864 47.7529 33.2726 46.0357 33.2726C44.3185 33.2726 42.9322 31.8864 42.9322 30.1692C42.9322 28.4519 44.3185 27.0657 46.0357 27.0657Z" fill="#013055"/>
<path d="M44.3805 31.1002C44.6702 31.1002 44.8978 30.8726 44.8978 30.583C44.8978 29.7347 45.6012 29.0312 46.4495 29.0312C46.7392 29.0312 46.9667 28.8037 46.9667 28.514C46.9667 28.2244 46.7392 27.9968 46.4495 27.9968C45.0219 27.9968 43.8633 29.1554 43.8633 30.583C43.8633 30.8726 44.0909 31.1002 44.3805 31.1002Z" fill="#013055"/>
</svg>
