<svg width="60" height="60" viewBox="0 0 60 60" fill="none" xmlns="http://www.w3.org/2000/svg">
<g clip-path="url(#clip0)">
<path d="M9.96902 53.3122C9.75117 53.0941 9.44883 52.9689 9.14062 52.9689C8.83242 52.9689 8.53008 53.0941 8.31211 53.3122C8.09414 53.5303 7.96875 53.8325 7.96875 54.1407C7.96875 54.449 8.09402 54.7513 8.31211 54.9691C8.53008 55.1871 8.83242 55.3126 9.14062 55.3126C9.44883 55.3126 9.75117 55.1872 9.96902 54.9691C10.187 54.7513 10.3125 54.449 10.3125 54.1407C10.3125 53.8325 10.1871 53.5302 9.96902 53.3122Z" fill="#013055"/>
<path d="M55.0238 21.438C54.8059 21.2199 54.5047 21.0946 54.1953 21.0946C53.8871 21.0946 53.5848 21.2199 53.3668 21.438C53.1489 21.6559 53.0234 21.9583 53.0234 22.2665C53.0234 22.5747 53.1488 22.877 53.3668 23.0949C53.5848 23.3128 53.8871 23.4384 54.1953 23.4384C54.5047 23.4384 54.8059 23.313 55.0238 23.0949C55.2428 22.877 55.3682 22.5747 55.3682 22.2665C55.3682 21.9583 55.2428 21.6559 55.0238 21.438Z" fill="#013055"/>
<path d="M59.6552 0.343242C59.4354 0.123516 59.1373 0 58.8264 0L29.9989 0.00152344C29.3518 0.00152344 28.8272 0.526289 28.8272 1.1734V4.52461L17.7191 7.50105C17.0939 7.66863 16.7229 8.31117 16.8905 8.93625L22.6475 30.4216L17.6672 35.402C17.0333 34.4764 15.969 33.8678 14.7652 33.8678H3.51551C1.57699 33.8678 0 35.4449 0 37.3833V56.4844C0 58.4229 1.57699 60 3.51551 60H14.7653C16.4121 60 17.7975 58.8614 18.1772 57.3305L19.5705 58.5456C20.6462 59.4836 22.0243 60.0001 23.4516 60.0001H58.8266C59.4737 60.0001 59.9985 59.4754 59.9985 58.8282V1.17188C59.9982 0.861094 59.875 0.562969 59.6552 0.343242ZM15.9369 56.4845C15.9369 57.1305 15.4112 57.6564 14.765 57.6564H3.51539C2.86922 57.6564 2.34352 57.1307 2.34352 56.4845V37.3834C2.34352 36.7372 2.86922 36.2115 3.51539 36.2115H7.9684V49.7109C7.9684 50.358 8.49316 50.8828 9.14027 50.8828C9.78738 50.8828 10.3121 50.358 10.3121 49.7109V36.2115H14.7652C15.4113 36.2115 15.937 36.7372 15.937 37.3834V56.4845H15.9369ZM19.4576 9.4616L28.8272 6.95098V11.2934L28.0418 11.5038C27.7414 11.5843 27.4856 11.7806 27.3302 12.0498C27.1748 12.319 27.1327 12.6388 27.2132 12.939C27.6635 14.6196 26.6626 16.3532 24.982 16.8035C24.6814 16.8841 24.4252 17.0808 24.2699 17.3505C24.1146 17.6202 24.0728 17.9406 24.154 18.2411L28.7218 35.1557H26.3699L25.1578 30.4138C25.1193 30.2629 25.0518 30.1237 24.9614 30.0028L19.4576 9.4616ZM28.8272 16.6675V26.5559L26.6898 18.6416C27.5827 18.1806 28.3133 17.4908 28.8272 16.6675ZM45.6628 57.6562H23.4513C22.5906 57.6562 21.7594 57.3448 21.1106 56.7791L18.2807 54.311V38.1032L23.3968 32.987L24.3247 36.6175C24.4574 37.1362 24.9246 37.4991 25.46 37.4991L48.4996 37.5005C49.4043 37.5005 50.1402 38.2364 50.1402 39.1411C50.1402 40.0458 49.4043 40.7817 48.4996 40.7817H36.6941C36.047 40.7817 35.5222 41.3065 35.5222 41.9536C35.5222 42.6007 36.047 43.1255 36.6941 43.1255H52.1675C53.0722 43.1255 53.8082 43.8614 53.8082 44.7661C53.8082 45.6708 53.0722 46.4067 52.1675 46.4067H36.6941C36.047 46.4067 35.5222 46.9315 35.5222 47.5786C35.5222 48.2257 36.047 48.7505 36.6941 48.7505H49.6601C50.5648 48.7505 51.3007 49.4864 51.3007 50.3911C51.3007 51.2958 50.5648 52.0317 49.6601 52.0317H36.6941C36.047 52.0317 35.5222 52.5565 35.5222 53.2036C35.5222 53.8507 36.047 54.3755 36.6941 54.3755H45.6628C46.5675 54.3755 47.3034 55.1114 47.3034 56.0161C47.3033 56.9203 46.5674 57.6562 45.6628 57.6562ZM57.6547 57.6562H57.6546H49.2922C49.5195 57.1555 49.6471 56.6004 49.6471 56.0156C49.6471 55.4309 49.5195 54.8757 49.2922 54.375H49.6601C51.857 54.375 53.6443 52.5877 53.6443 50.3907C53.6443 49.75 53.4914 49.1445 53.2214 48.6075C54.9084 48.1441 56.1517 46.5979 56.1517 44.7659C56.1517 43.8771 55.859 43.0555 55.3652 42.3922V27.5399C55.3652 26.8928 54.8405 26.368 54.1934 26.368C53.5463 26.368 53.0215 26.8928 53.0215 27.5399V40.8749C52.7461 40.8145 52.4605 40.7817 52.1673 40.7817H52.1289C52.3561 40.281 52.4837 39.7259 52.4837 39.1411C52.4837 36.9441 50.6964 35.1568 48.4995 35.1568H46.6157C48.6159 34.299 50.0208 32.3108 50.0208 30C50.0208 26.9075 47.505 24.3916 44.4125 24.3916C41.3202 24.3916 38.8043 26.9075 38.8043 30C38.8043 32.3108 40.2093 34.299 42.2094 35.1568H35.8036V12.8746C37.897 12.4184 39.5489 10.7666 40.005 8.67305H48.82C49.2761 10.7666 50.9279 12.4184 53.0214 12.8746V16.5179C53.0214 17.165 53.5461 17.6898 54.1932 17.6898C54.8404 17.6898 55.3651 17.165 55.3651 16.5179V11.8283C55.3651 11.1812 54.8404 10.6564 54.1932 10.6564C52.4534 10.6564 51.0381 9.24094 51.0381 7.50117C51.0381 6.85406 50.5133 6.3293 49.8662 6.3293H38.9589C38.3118 6.3293 37.787 6.85406 37.787 7.50117C37.787 9.24105 36.3716 10.6564 34.6318 10.6564C33.9847 10.6564 33.46 11.1812 33.46 11.8283V35.1567H31.1711V2.34504L57.6547 2.34375V57.6562ZM44.4128 33.2646C42.6127 33.2646 41.1483 31.8001 41.1483 30.0001C41.1483 28.2001 42.6128 26.7355 44.4128 26.7355C46.2128 26.7355 47.6773 28.2 47.6773 30C47.6773 31.8 46.2129 33.2646 44.4128 33.2646Z" fill="#013055"/>
</g>
<defs>
<clipPath id="clip0">
<rect width="60" height="60" fill="white"/>
</clipPath>
</defs>
</svg>
