<svg width="46" height="60" viewBox="0 0 46 60" fill="none" xmlns="http://www.w3.org/2000/svg">
<path d="M42.8359 3.75H35.9514V3.16266C35.95 2.32404 35.6162 1.52019 35.0231 0.927331C34.43 0.334473 33.626 0.000991627 32.7873 0L13.217 0C12.3782 0.000992437 11.574 0.334667 10.9808 0.927829C10.3876 1.52099 10.054 2.32521 10.053 3.16406V3.75H3.16797C2.32915 3.75087 1.52494 4.08444 0.931764 4.67753C0.338588 5.27061 0.00489892 6.07478 0.00390625 6.91359V56.8355C0.00489869 57.6743 0.338573 58.4785 0.931735 59.0717C1.5249 59.6649 2.32911 59.9985 3.16797 59.9995H42.8359C43.6748 59.9985 44.479 59.6649 45.0722 59.0717C45.6653 58.4785 45.999 57.6743 46 56.8355V6.91313C45.9989 6.07439 45.6651 5.27035 45.072 4.67736C44.4788 4.08437 43.6747 3.75087 42.8359 3.75ZM40.6094 10.5469V54.6094H5.39453V10.5469H40.6094ZM30.5608 8.90625H15.4436V5.39062H30.5608V8.90625ZM11.6936 3.16266C11.6941 2.75877 11.8548 2.37156 12.1403 2.08597C12.4259 1.80038 12.8131 1.63971 13.217 1.63922H32.7873C33.1912 1.63971 33.5784 1.80038 33.864 2.08597C34.1496 2.37156 34.3103 2.75877 34.3108 3.16266V8.90625H32.2014V4.56891C32.201 4.35159 32.1144 4.1433 31.9606 3.98977C31.8068 3.83623 31.5984 3.75 31.3811 3.75H14.6233C14.4057 3.75 14.1971 3.83643 14.0432 3.99026C13.8894 4.1441 13.803 4.35275 13.803 4.57031V8.90625H11.6936V3.16266ZM44.3594 56.8345C44.3589 57.2384 44.1982 57.6256 43.9126 57.9112C43.627 58.1968 43.2398 58.3575 42.8359 58.358H3.16797C2.76408 58.3575 2.37688 58.1968 2.09128 57.9112C1.80569 57.6256 1.64503 57.2384 1.64453 56.8345V6.91313C1.64503 6.50924 1.80569 6.12203 2.09128 5.83644C2.37688 5.55085 2.76408 5.39018 3.16797 5.38969H10.053V8.90625H4.57422C4.3567 8.90637 4.14812 8.99284 3.99431 9.14665C3.8405 9.30046 3.75403 9.50904 3.75391 9.72656V55.4297C3.75403 55.6472 3.8405 55.8558 3.99431 56.0096C4.14812 56.1634 4.3567 56.2499 4.57422 56.25H41.4297C41.6472 56.25 41.8559 56.1636 42.0097 56.0097C42.1636 55.8559 42.25 55.6472 42.25 55.4297V9.7275C42.25 9.50994 42.1636 9.30129 42.0097 9.14745C41.8559 8.99361 41.6472 8.90719 41.4297 8.90719H35.9514V5.39062H42.8359C43.2398 5.39112 43.627 5.55179 43.9126 5.83738C44.1982 6.12297 44.3589 6.51017 44.3594 6.91406V56.8345Z" fill="#013055"/>
<path d="M8.32422 43.8H12.9709C13.1885 43.7999 13.397 43.7134 13.5508 43.5596C13.7047 43.4058 13.7911 43.1972 13.7912 42.9797V38.1563C13.7911 37.9387 13.7047 37.7302 13.5508 37.5763C13.397 37.4225 13.1885 37.3361 12.9709 37.3359H8.32422C8.1067 37.3361 7.89812 37.4225 7.74431 37.5763C7.5905 37.7302 7.50403 37.9387 7.50391 38.1563V42.9797C7.50403 43.1972 7.5905 43.4058 7.74431 43.5596C7.89812 43.7134 8.1067 43.7999 8.32422 43.8ZM9.14453 38.9761H12.1502V42.1594H9.14453V38.9761Z" fill="#013055"/>
<path d="M8.32422 52.5H12.9709C13.1885 52.4999 13.397 52.4134 13.5509 52.2596C13.7047 52.1058 13.7911 51.8972 13.7913 51.6797V46.8549C13.7913 46.6373 13.7048 46.4286 13.551 46.2748C13.3972 46.121 13.1885 46.0345 12.9709 46.0345H8.32422C8.10666 46.0345 7.89801 46.121 7.74417 46.2748C7.59033 46.4286 7.50391 46.6373 7.50391 46.8549V51.6783C7.50378 51.7861 7.52491 51.8929 7.56607 51.9926C7.60723 52.0922 7.66763 52.1828 7.74381 52.2591C7.81999 52.3354 7.91046 52.396 8.01005 52.4373C8.10964 52.4786 8.21639 52.5 8.32422 52.5ZM9.14453 47.6766H12.1502V50.8594H9.14453V47.6766Z" fill="#013055"/>
<path d="M16.6406 20.8312H20.3906C20.6081 20.8311 20.8167 20.7447 20.9705 20.5908C21.1243 20.437 21.2108 20.2285 21.2109 20.0109C21.2109 19.657 21.3159 19.3109 21.5126 19.0166C21.7092 18.7223 21.9887 18.4929 22.3157 18.3575C22.6428 18.222 23.0026 18.1866 23.3498 18.2556C23.6969 18.3247 24.0158 18.4951 24.2661 18.7454C24.5164 18.9957 24.6869 19.3146 24.7559 19.6618C24.825 20.0089 24.7895 20.3688 24.6541 20.6958C24.5186 21.0228 24.2892 21.3023 23.9949 21.499C23.7006 21.6957 23.3546 21.8006 23.0006 21.8006H21.1256C20.9081 21.8006 20.6994 21.887 20.5456 22.0409C20.3917 22.1947 20.3053 22.4034 20.3053 22.6209V27.5714C20.3052 27.6791 20.3264 27.7858 20.3676 27.8854C20.4088 27.9849 20.4693 28.0754 20.5454 28.1516C20.6216 28.2278 20.7121 28.2882 20.8116 28.3294C20.9112 28.3706 21.0179 28.3918 21.1256 28.3917H24.8756C24.9834 28.3918 25.0901 28.3706 25.1896 28.3294C25.2892 28.2882 25.3796 28.2278 25.4558 28.1516C25.532 28.0754 25.5924 27.9849 25.6336 27.8854C25.6748 27.7858 25.696 27.6791 25.6959 27.5714V26.6676C26.9035 26.1787 27.9553 25.3705 28.7387 24.3296C29.522 23.2886 30.0075 22.0542 30.1429 20.7585C30.2784 19.4628 30.0588 18.1546 29.5077 16.9741C28.9566 15.7936 28.0948 14.7853 27.0145 14.0572C25.9342 13.3291 24.6761 12.9085 23.3751 12.8407C22.0741 12.7728 20.7792 13.0602 19.629 13.672C18.4788 14.2838 17.5167 15.1969 16.8458 16.3137C16.1748 17.4304 15.8204 18.7086 15.8203 20.0114C15.8204 20.2289 15.9069 20.4374 16.0607 20.5911C16.2146 20.7449 16.4231 20.8312 16.6406 20.8312ZM23.0006 14.4712C24.3269 14.4713 25.6091 14.9471 26.6143 15.8122C27.6196 16.6774 28.2811 17.8744 28.4787 19.1858C28.6763 20.4973 28.397 21.8361 27.6913 22.9591C26.9857 24.082 25.9006 24.9146 24.6333 25.3055C24.4658 25.3572 24.3193 25.4612 24.2153 25.6022C24.1113 25.7433 24.0552 25.914 24.0553 26.0892V26.7511H21.9459V23.4412H23.0006C23.6438 23.4412 24.2741 23.2603 24.8194 22.9193C25.3647 22.5782 25.8032 22.0907 26.0847 21.5124C26.3663 20.934 26.4795 20.2882 26.4116 19.6486C26.3437 19.009 26.0972 18.4014 25.7005 17.8951C25.3038 17.3888 24.7727 17.0043 24.1679 16.7854C23.5631 16.5665 22.9089 16.522 22.28 16.6571C21.6511 16.7922 21.0729 17.1014 20.6114 17.5494C20.1498 17.9973 19.8235 18.5661 19.6697 19.1906H17.5209C17.7194 17.8788 18.3812 16.6816 19.3865 15.8158C20.3918 14.95 21.6739 14.473 23.0006 14.4712Z" fill="#013055"/>
<path d="M24.875 34.9987C25.0926 34.9987 25.3012 34.9123 25.455 34.7585C25.6089 34.6046 25.6953 34.396 25.6953 34.1784V30.764C25.6953 30.5465 25.6089 30.3378 25.455 30.184C25.3012 30.0302 25.0926 29.9437 24.875 29.9437H21.125C20.9074 29.9437 20.6988 30.0302 20.545 30.184C20.3911 30.3378 20.3047 30.5465 20.3047 30.764V34.1784C20.3047 34.396 20.3911 34.6046 20.545 34.7585C20.6988 34.9123 20.9074 34.9987 21.125 34.9987H24.875ZM21.9453 31.5844H24.0547V33.3581H21.9453V31.5844Z" fill="#013055"/>
<path d="M16.0859 38.7305C16.0859 38.948 16.1724 39.1567 16.3262 39.3105C16.48 39.4644 16.6887 39.5508 16.9062 39.5508H37.6775C37.8951 39.5508 38.1037 39.4644 38.2575 39.3105C38.4114 39.1567 38.4978 38.948 38.4978 38.7305C38.4978 38.5129 38.4114 38.3043 38.2575 38.1504C38.1037 37.9966 37.8951 37.9102 37.6775 37.9102H16.9062C16.6887 37.9102 16.48 37.9966 16.3262 38.1504C16.1724 38.3043 16.0859 38.5129 16.0859 38.7305Z" fill="#013055"/>
<path d="M16.9062 43.2253H33.4883C33.7058 43.2253 33.9145 43.1389 34.0683 42.9851C34.2222 42.8312 34.3086 42.6226 34.3086 42.405C34.3086 42.1875 34.2222 41.9788 34.0683 41.825C33.9145 41.6711 33.7058 41.5847 33.4883 41.5847H16.9062C16.6887 41.5847 16.48 41.6711 16.3262 41.825C16.1724 41.9788 16.0859 42.1875 16.0859 42.405C16.0859 42.6226 16.1724 42.8312 16.3262 42.9851C16.48 43.1389 16.6887 43.2253 16.9062 43.2253Z" fill="#013055"/>
<path d="M37.6775 46.6088H16.9062C16.6887 46.6088 16.48 46.6952 16.3262 46.849C16.1724 47.0029 16.0859 47.2115 16.0859 47.4291C16.0859 47.6466 16.1724 47.8553 16.3262 48.0091C16.48 48.163 16.6887 48.2494 16.9062 48.2494H37.6775C37.8951 48.2494 38.1037 48.163 38.2575 48.0091C38.4114 47.8553 38.4978 47.6466 38.4978 47.4291C38.4978 47.2115 38.4114 47.0029 38.2575 46.849C38.1037 46.6952 37.8951 46.6088 37.6775 46.6088Z" fill="#013055"/>
<path d="M33.4883 50.2833H16.9062C16.6887 50.2833 16.48 50.3697 16.3262 50.5236C16.1724 50.6774 16.0859 50.8861 16.0859 51.1036C16.0859 51.3212 16.1724 51.5298 16.3262 51.6837C16.48 51.8375 16.6887 51.924 16.9062 51.924H33.4883C33.7058 51.924 33.9145 51.8375 34.0683 51.6837C34.2222 51.5298 34.3086 51.3212 34.3086 51.1036C34.3086 50.8861 34.2222 50.6774 34.0683 50.5236C33.9145 50.3697 33.7058 50.2833 33.4883 50.2833Z" fill="#013055"/>
</svg>
