<svg width="68" height="52" viewBox="0 0 68 52" fill="none" xmlns="http://www.w3.org/2000/svg">
<g clip-path="url(#clip0)">
<path d="M67.4005 17.585L65.6338 14.5249C65.268 13.8914 64.4584 13.6743 63.8242 14.04C63.1906 14.4058 62.9735 15.216 63.3394 15.8496L65.1061 18.9097C65.1994 19.0711 65.1786 19.2247 65.1579 19.302C65.1373 19.3792 65.0783 19.5228 64.917 19.6159L60.2451 22.3132C59.9979 22.4555 59.6813 22.3706 59.5387 22.1239L50.1401 5.84539C49.9976 5.59847 50.0825 5.2816 50.3294 5.13893L55.0012 2.44174C55.2481 2.29947 55.5652 2.38398 55.7076 2.6309L57.3783 5.52468C57.7442 6.15841 58.5544 6.37553 59.1878 6.00952C59.8214 5.64377 60.0385 4.83359 59.6727 4.2L58.002 1.30622C57.1291 -0.205648 55.189 -0.725853 53.6766 0.147248L49.0047 2.84458C48.2949 3.25443 47.8039 3.89942 47.5727 4.62482H34.3285C32.469 4.62482 30.7208 5.3489 29.4058 6.66378L28.0488 8.02079C26.859 7.73717 25.64 7.59133 24.4141 7.59133H20.3018C20.0963 6.79771 19.5859 6.08344 18.8216 5.64205L14.1497 2.94472C13.4171 2.52175 12.5635 2.40955 11.7468 2.62839C10.9299 2.84722 10.247 3.37127 9.82417 4.10369L0.425647 20.3824C0.00280659 21.1148 -0.109659 21.9682 0.109179 22.7852C0.328017 23.6023 0.852063 24.285 1.58462 24.7079L6.25652 27.4052C6.75394 27.6924 7.29746 27.8288 7.83436 27.8288C8.03001 27.8288 8.22461 27.8099 8.41589 27.7744L12.2397 31.5984C12.1812 31.8989 12.1508 32.2072 12.1508 32.5203C12.1508 33.7932 12.6465 34.9901 13.5467 35.8901C14.4085 36.7518 15.521 37.2132 16.6516 37.2756C16.6343 37.4417 16.6248 37.6094 16.6248 37.7787C16.6248 39.0517 17.1205 40.2484 18.0207 41.1484C18.9208 42.0486 20.1175 42.5443 21.3904 42.5443C21.425 42.5443 21.4592 42.5425 21.4936 42.5417C21.4928 42.5762 21.4911 42.6104 21.4911 42.6449C21.4911 43.9179 21.9868 45.1147 22.8869 46.0147C23.787 46.9148 24.9838 47.4105 26.2566 47.4105C26.2912 47.4105 26.3254 47.4088 26.3598 47.408C26.359 47.4424 26.3573 47.4766 26.3573 47.5112C26.3573 48.7841 26.853 49.9809 27.7531 50.8809C28.6533 51.7809 29.85 52.2767 31.1229 52.2767C32.3958 52.2767 33.5926 51.781 34.4926 50.8809L36.3771 48.9965C36.9296 48.444 37.3165 47.788 37.5405 47.0907C38.3777 47.7085 39.3725 48.0176 40.3677 48.0175C41.5879 48.0173 42.8086 47.5529 43.7375 46.6239C44.2933 46.0681 44.6943 45.399 44.9203 44.6689C45.6872 45.1703 46.5829 45.44 47.5205 45.44C48.7934 45.44 49.9903 44.9443 50.8903 44.0442C51.5591 43.3752 52.0042 42.5425 52.189 41.6364C52.6675 41.7949 53.173 41.8785 53.6916 41.8785C54.9645 41.8785 56.1615 41.3828 57.0614 40.4825C58.9195 38.6244 58.9195 35.601 57.0614 33.7429L53.9696 30.6511L59.6132 25.0075C59.7385 25.0225 59.8647 25.031 59.9915 25.031C60.5284 25.031 61.0721 24.8945 61.5694 24.6075L66.2413 21.9103C66.9737 21.4873 67.4977 20.8046 67.7167 19.9875C67.9357 19.1704 67.8233 18.3174 67.4005 17.585ZM2.90917 22.4135C2.74782 22.3204 2.68901 22.1769 2.66834 22.0996C2.64768 22.0223 2.62688 21.8687 2.72014 21.7072L12.1187 5.42838C12.2118 5.26703 12.3554 5.20821 12.4326 5.18755C12.4656 5.17881 12.5125 5.16993 12.5679 5.16993C12.6424 5.16993 12.7324 5.18596 12.8248 5.23921L17.4968 7.93654C17.7435 8.07908 17.8286 8.39594 17.6861 8.64286L8.28753 24.9215C8.14486 25.1683 7.82826 25.2534 7.58121 25.1108L2.90917 22.4135ZM14.8002 32.5202C14.8002 31.9548 15.0204 31.4235 15.4202 31.0237L16.5634 29.8805C16.9759 29.4679 17.5178 29.2616 18.0599 29.2616C18.6017 29.2616 19.1437 29.468 19.5562 29.8805C19.956 30.2803 20.1762 30.8116 20.1762 31.3769C20.1762 31.9421 19.956 32.4736 19.5562 32.8732L18.413 34.0164C17.5879 34.8417 16.2453 34.8416 15.4202 34.0164C15.0204 33.6169 14.8002 33.0855 14.8002 32.5202ZM21.3905 39.8949C20.8252 39.8949 20.2938 39.6747 19.8942 39.2751C19.4944 38.8754 19.2742 38.3439 19.2742 37.7787C19.2742 37.2134 19.4944 36.682 19.8942 36.2823L21.7785 34.398C22.191 33.9855 22.733 33.7792 23.2749 33.7792C23.817 33.7792 24.3589 33.9855 24.7714 34.398C25.1712 34.7976 25.3914 35.3291 25.3914 35.8943C25.3914 36.4596 25.1712 36.991 24.7714 37.3907L22.887 39.2751C22.4872 39.6748 21.9558 39.8949 21.3905 39.8949ZM26.2568 44.7612C25.6914 44.7612 25.1601 44.5411 24.7604 44.1414C24.3606 43.7418 24.1405 43.2103 24.1405 42.6451C24.1405 42.0798 24.3606 41.5484 24.7604 41.1486L26.6448 39.2642C27.0573 38.8517 27.5992 38.6454 28.1411 38.6454C28.6831 38.6454 29.2251 38.8517 29.6376 39.2643C30.0374 39.664 30.2576 40.1954 30.2576 40.7607C30.2576 41.3259 30.0374 41.8574 29.6376 42.2571L27.7533 44.1414C27.3536 44.5411 26.8222 44.7612 26.2568 44.7612ZM34.5039 47.1233L32.6194 49.0078C32.2197 49.4075 31.6884 49.6276 31.123 49.6276C30.5576 49.6276 30.0263 49.4075 29.6266 49.0078C29.2269 48.608 29.0067 48.0767 29.0067 47.5114C29.0067 46.9461 29.2269 46.4147 29.6266 46.0149L31.511 44.1306C31.9235 43.7179 32.4655 43.5117 33.0075 43.5117C33.5493 43.5117 34.0914 43.7181 34.5039 44.1304C35.329 44.9554 35.329 46.2981 34.5039 47.1233ZM55.1883 38.6094C54.7886 39.0092 54.2572 39.2294 53.6918 39.2294C53.1266 39.2294 52.5953 39.0092 52.1955 38.6094L39.5513 25.9653C39.034 25.4481 38.1955 25.448 37.6778 25.9653C37.1605 26.4826 37.1605 27.3213 37.6778 27.8386L49.0172 39.1781C49.4169 39.5777 49.6371 40.1092 49.6371 40.6745C49.6371 41.2397 49.4169 41.7712 49.0172 42.171C48.6175 42.5706 48.0862 42.7908 47.5208 42.7908C46.9554 42.7908 46.4241 42.5706 46.0244 42.171L32.3986 28.5451C31.8813 28.0279 31.0425 28.0279 30.5251 28.5451C30.0078 29.0624 30.0078 29.9012 30.5251 30.4185L41.8644 41.7579C42.2642 42.1576 42.4843 42.689 42.4843 43.2543C42.4843 43.8195 42.2642 44.351 41.8644 44.7506C41.0394 45.5758 39.6968 45.5761 38.8715 44.7506L36.3777 42.2568C36.3742 42.2533 36.3704 42.2504 36.3669 42.2471C35.4129 41.2988 34.1544 40.8392 32.9045 40.8661C32.9053 40.831 32.907 40.7961 32.907 40.7607C32.907 39.4878 32.4113 38.2909 31.5112 37.3908C30.5559 36.4356 29.2927 35.9729 28.0381 35.9998C28.0389 35.9647 28.0406 35.9297 28.0406 35.8945C28.0406 34.6214 27.5449 33.4247 26.6448 32.5246C25.6001 31.4799 24.1871 31.0228 22.82 31.1527C22.7653 29.9641 22.2766 28.8543 21.4296 28.0073C19.5715 26.1491 16.548 26.1495 14.6899 28.0073L13.5467 29.1505C13.5453 29.1518 13.544 29.1533 13.5427 29.1546L10.6011 26.213L19.8226 10.2407H24.414C24.8639 10.2407 25.3125 10.2645 25.7587 10.3109L24.2444 11.8252C23.3443 12.7253 22.8486 13.9221 22.8486 15.195C22.8486 16.4681 23.3443 17.6648 24.2444 18.5649C25.1736 19.4939 26.394 19.9585 27.6142 19.9585C28.8346 19.9585 30.0551 19.494 30.9841 18.5649L34.5602 14.9888L55.1882 35.6167C56.0134 36.4417 56.0134 37.7844 55.1883 38.6094ZM42.461 19.1425C44.3887 17.7473 45.5703 15.4959 45.5703 13.0498C45.5703 12.3182 44.9771 11.7251 44.2456 11.7251C43.5141 11.7251 42.9209 12.3182 42.9209 13.0498C42.9209 14.7803 42.0069 16.3586 40.5486 17.2301L35.5031 12.1847C34.9857 11.6674 34.1483 11.6539 33.6309 12.1712L29.1107 16.6914C28.2855 17.5165 26.943 17.5164 26.1178 16.6914C25.718 16.2917 25.4979 15.7603 25.4979 15.195C25.4979 14.6298 25.718 14.0983 26.1178 13.6985L31.2792 8.53715C32.0936 7.72274 33.1765 7.2742 34.3285 7.2742H47.9059L57.2443 23.4489C57.2664 23.4872 57.2905 23.5236 57.3139 23.5606L52.0965 28.778L42.461 19.1425Z" fill="#013055"/>
<path d="M61.5064 11.3501C61.8548 11.3501 62.1952 11.2084 62.4429 10.962C62.6892 10.7143 62.8311 10.3738 62.8311 10.0254C62.8311 9.67568 62.6893 9.33523 62.4429 9.0875C62.1952 8.8411 61.8548 8.70068 61.5064 8.70068C61.1566 8.70068 60.8162 8.8411 60.5698 9.0875C60.3221 9.33523 60.1816 9.67568 60.1816 10.0254C60.1816 10.3738 60.3221 10.7143 60.5698 10.962C60.8162 11.2085 61.1566 11.3501 61.5064 11.3501Z" fill="#013055"/>
</g>
<defs>
<clipPath id="clip0">
<rect width="67.8261" height="52" fill="white"/>
</clipPath>
</defs>
</svg>
