<svg width="55" height="55" viewBox="0 0 55 55" fill="none" xmlns="http://www.w3.org/2000/svg">
<g opacity="0.95">
<circle cx="27.5" cy="27.5" r="27.5" fill="white"/>
<path d="M27.5 3C13.9899 3 3 13.9909 3 27.5C3 41.0091 13.9899 52 27.5 52C41.0101 52 52 41.0091 52 27.5C52 13.9909 41.0101 3 27.5 3ZM27.5 49.9584C15.1164 49.9584 5.04163 39.8836 5.04163 27.5C5.04163 15.1164 15.1164 5.04163 27.5 5.04163C39.8836 5.04163 49.9584 15.1164 49.9584 27.5C49.9584 39.8836 39.8836 49.9584 27.5 49.9584Z" fill="#AE2422"/>
<path d="M37.2398 26.6417L22.9482 17.4542C22.6351 17.2499 22.2304 17.2389 21.9074 17.4163C21.5784 17.5957 21.375 17.9387 21.375 18.3126V36.6876C21.375 37.0614 21.5784 37.4044 21.9074 37.5838C22.0589 37.6666 22.2284 37.7084 22.3959 37.7084C22.5873 37.7084 22.7807 37.6545 22.9482 37.5459L37.2398 28.3584C37.5309 28.171 37.7084 27.847 37.7084 27.5001C37.7084 27.1531 37.5309 26.8292 37.2398 26.6417ZM23.4166 34.8173V20.1828L34.7994 27.5001L23.4166 34.8173Z" fill="#AE2422"/>
</g>
</svg>
